<svg width="134" height="36" viewBox="0 0 134 36" fill="none" xmlns="http://www.w3.org/2000/svg">
<path d="M14.5327 14.1293C14.3788 13.6307 14.1664 13.1844 13.8956 12.7905C13.6309 12.3904 13.3108 12.0488 12.9354 11.7656C12.5661 11.4825 12.1413 11.2701 11.6612 11.1286C11.1811 10.9808 10.6579 10.907 10.0916 10.907C9.07599 10.907 8.17117 11.1624 7.37713 11.6733C6.5831 12.1842 5.95833 12.9351 5.50284 13.9261C5.0535 14.911 4.82884 16.1113 4.82884 17.527C4.82884 18.955 5.0535 20.1645 5.50284 21.1555C5.95218 22.1465 6.57694 22.9006 7.37713 23.4176C8.17732 23.9285 9.10677 24.1839 10.1655 24.1839C11.1257 24.1839 11.9567 23.9993 12.6584 23.63C13.3662 23.2607 13.911 22.7375 14.2926 22.0604C14.6742 21.3771 14.8651 20.5769 14.8651 19.6598L15.6406 19.7798H10.5071V17.1023H18.1797V19.3736C18.1797 20.9924 17.835 22.3928 17.1456 23.5746C16.4562 24.7564 15.5083 25.6674 14.3018 26.3075C13.0954 26.9415 11.7105 27.2585 10.147 27.2585C8.40507 27.2585 6.87547 26.8677 5.55824 26.0859C4.24716 25.2981 3.2223 24.1809 2.48366 22.7344C1.75118 21.2817 1.38494 19.5582 1.38494 17.5639C1.38494 16.0374 1.60038 14.674 2.03125 13.4737C2.46828 12.2734 3.07765 11.2547 3.85938 10.4176C4.6411 9.57434 5.55824 8.93418 6.6108 8.49716C7.66335 8.05398 8.80824 7.83239 10.0455 7.83239C11.0919 7.83239 12.0675 7.98627 12.9723 8.29403C13.8771 8.59564 14.6804 9.02651 15.3821 9.58665C16.09 10.1468 16.6716 10.8116 17.1271 11.581C17.5826 12.3504 17.8812 13.1998 18.0227 14.1293H14.5327ZM20.4657 23.4915V20.7678L28.4892 8.09091H30.7605V11.9688H29.3755L23.9743 20.5277V20.6754H35.1738V23.4915H20.4657ZM29.4863 27V22.6605L29.5233 21.4418V8.09091H32.7548V27H29.4863ZM53.9938 14.4709H50.5407C50.4422 13.9046 50.2606 13.4029 49.9959 12.9659C49.7312 12.5227 49.4019 12.1473 49.008 11.8395C48.6141 11.5317 48.1647 11.3009 47.66 11.147C47.1614 10.987 46.6228 10.907 46.0442 10.907C45.0163 10.907 44.1053 11.1655 43.3113 11.6825C42.5172 12.1934 41.8955 12.9444 41.4462 13.9354C40.9969 14.9202 40.7722 16.1236 40.7722 17.5455C40.7722 18.992 40.9969 20.2107 41.4462 21.2017C41.9017 22.1866 42.5234 22.9313 43.3113 23.4361C44.1053 23.9347 45.0132 24.1839 46.035 24.1839C46.6013 24.1839 47.1306 24.1101 47.623 23.9624C48.1216 23.8085 48.5679 23.5838 48.9618 23.2884C49.3619 22.9929 49.6974 22.6297 49.9682 22.1989C50.2452 21.768 50.436 21.2756 50.5407 20.7216L53.9938 20.7401C53.8645 21.6387 53.5845 22.482 53.1536 23.2699C52.7289 24.0578 52.1718 24.7533 51.4824 25.3565C50.793 25.9536 49.9867 26.4214 49.0634 26.7599C48.1401 27.0923 47.1152 27.2585 45.9888 27.2585C44.3269 27.2585 42.8435 26.8738 41.5385 26.1044C40.2336 25.335 39.2057 24.224 38.4547 22.7713C37.7038 21.3187 37.3283 19.5767 37.3283 17.5455C37.3283 15.508 37.7069 13.7661 38.464 12.3196C39.2211 10.867 40.2521 9.75592 41.557 8.9865C42.8619 8.21709 44.3392 7.83239 45.9888 7.83239C47.0414 7.83239 48.0201 7.98011 48.9249 8.27557C49.8297 8.57102 50.6361 9.00497 51.3439 9.57741C52.0518 10.1437 52.6335 10.8393 53.089 11.6641C53.5506 12.4827 53.8522 13.4183 53.9938 14.4709ZM62.5799 27V8.09091H66.0053V24.1286H74.3335V27H62.5799ZM92.9664 17.5455C92.9664 19.5829 92.5848 21.3279 91.8216 22.7805C91.0645 24.227 90.0304 25.335 88.7193 26.1044C87.4144 26.8738 85.934 27.2585 84.2782 27.2585C82.6225 27.2585 81.139 26.8738 79.8279 26.1044C78.523 25.3288 77.4889 24.2178 76.7257 22.7713C75.9686 21.3187 75.59 19.5767 75.59 17.5455C75.59 15.508 75.9686 13.7661 76.7257 12.3196C77.4889 10.867 78.523 9.75592 79.8279 8.9865C81.139 8.21709 82.6225 7.83239 84.2782 7.83239C85.934 7.83239 87.4144 8.21709 88.7193 8.9865C90.0304 9.75592 91.0645 10.867 91.8216 12.3196C92.5848 13.7661 92.9664 15.508 92.9664 17.5455ZM89.5226 17.5455C89.5226 16.1113 89.2979 14.9018 88.8485 13.9169C88.4054 12.9259 87.7898 12.178 87.002 11.6733C86.2141 11.1624 85.3062 10.907 84.2782 10.907C83.2503 10.907 82.3424 11.1624 81.5545 11.6733C80.7666 12.178 80.148 12.9259 79.6987 13.9169C79.2555 14.9018 79.0339 16.1113 79.0339 17.5455C79.0339 18.9796 79.2555 20.1922 79.6987 21.1832C80.148 22.1681 80.7666 22.916 81.5545 23.4268C82.3424 23.9316 83.2503 24.1839 84.2782 24.1839C85.3062 24.1839 86.2141 23.9316 87.002 23.4268C87.7898 22.916 88.4054 22.1681 88.8485 21.1832C89.2979 20.1922 89.5226 18.9796 89.5226 17.5455ZM108.373 14.1293C108.219 13.6307 108.006 13.1844 107.735 12.7905C107.471 12.3904 107.151 12.0488 106.775 11.7656C106.406 11.4825 105.981 11.2701 105.501 11.1286C105.021 10.9808 104.498 10.907 103.931 10.907C102.916 10.907 102.011 11.1624 101.217 11.6733C100.423 12.1842 99.7982 12.9351 99.3427 13.9261C98.8933 14.911 98.6687 16.1113 98.6687 17.527C98.6687 18.955 98.8933 20.1645 99.3427 21.1555C99.792 22.1465 100.417 22.9006 101.217 23.4176C102.017 23.9285 102.947 24.1839 104.005 24.1839C104.966 24.1839 105.797 23.9993 106.498 23.63C107.206 23.2607 107.751 22.7375 108.132 22.0604C108.514 21.3771 108.705 20.5769 108.705 19.6598L109.48 19.7798H104.347V17.1023H112.02V19.3736C112.02 20.9924 111.675 22.3928 110.985 23.5746C110.296 24.7564 109.348 25.6674 108.142 26.3075C106.935 26.9415 105.55 27.2585 103.987 27.2585C102.245 27.2585 100.715 26.8677 99.3981 26.0859C98.087 25.2981 97.0621 24.1809 96.3235 22.7344C95.591 21.2817 95.2248 19.5582 95.2248 17.5639C95.2248 16.0374 95.4402 14.674 95.8711 13.4737C96.3081 12.2734 96.9175 11.2547 97.6992 10.4176C98.4809 9.57434 99.3981 8.93418 100.451 8.49716C101.503 8.05398 102.648 7.83239 103.885 7.83239C104.932 7.83239 105.907 7.98627 106.812 8.29403C107.717 8.59564 108.52 9.02651 109.222 9.58665C109.93 10.1468 110.511 10.8116 110.967 11.581C111.422 12.3504 111.721 13.1998 111.863 14.1293H108.373ZM131.728 17.5455C131.728 19.5829 131.347 21.3279 130.583 22.7805C129.826 24.227 128.792 25.335 127.481 26.1044C126.176 26.8738 124.696 27.2585 123.04 27.2585C121.384 27.2585 119.901 26.8738 118.59 26.1044C117.285 25.3288 116.251 24.2178 115.487 22.7713C114.73 21.3187 114.352 19.5767 114.352 17.5455C114.352 15.508 114.73 13.7661 115.487 12.3196C116.251 10.867 117.285 9.75592 118.59 8.9865C119.901 8.21709 121.384 7.83239 123.04 7.83239C124.696 7.83239 126.176 8.21709 127.481 8.9865C128.792 9.75592 129.826 10.867 130.583 12.3196C131.347 13.7661 131.728 15.508 131.728 17.5455ZM128.284 17.5455C128.284 16.1113 128.06 14.9018 127.61 13.9169C127.167 12.9259 126.552 12.178 125.764 11.6733C124.976 11.1624 124.068 10.907 123.04 10.907C122.012 10.907 121.104 11.1624 120.316 11.6733C119.528 12.178 118.91 12.9259 118.46 13.9169C118.017 14.9018 117.796 16.1113 117.796 17.5455C117.796 18.9796 118.017 20.1922 118.46 21.1832C118.91 22.1681 119.528 22.916 120.316 23.4268C121.104 23.9316 122.012 24.1839 123.04 24.1839C124.068 24.1839 124.976 23.9316 125.764 23.4268C126.552 22.916 127.167 22.1681 127.61 21.1832C128.06 20.1922 128.284 18.9796 128.284 17.5455Z" fill="#0D1101"/>
</svg>
