<svg width="40" height="40" viewBox="0 0 40 40" fill="none" xmlns="http://www.w3.org/2000/svg">
<path d="M10.9886 20.0002C4.56069 10.4763 16.9441 7.50016 19.9985 3.3335C23.0533 7.50016 35.4363 10.4763 29.0041 20.0002H10.9886Z" stroke="#03040B" stroke-width="2.5" stroke-linecap="round" stroke-linejoin="round"/>
<path d="M20 26.6667V30.0001" stroke="#03040B" stroke-width="2.5" stroke-linecap="round" stroke-linejoin="round"/>
<path d="M10.832 20V27.1428C10.832 31.6325 10.832 33.8772 12.1745 35.272C13.5169 36.6667 15.6775 36.6667 19.9987 36.6667C24.3199 36.6667 26.4805 36.6667 27.8229 35.272C29.1654 33.8772 29.1654 31.6325 29.1654 27.1428V20" stroke="#03040B" stroke-width="2.5" stroke-linecap="round" stroke-linejoin="round"/>
<path d="M33.332 23.3333L34.9987 22.5M33.332 30L34.9987 30.8333" stroke="#03040B" stroke-width="2.5" stroke-linecap="round" stroke-linejoin="round"/>
<path d="M6.66667 23.3333L5 22.5M6.66667 30L5 30.8333" stroke="#03040B" stroke-width="2.5" stroke-linecap="round" stroke-linejoin="round"/>
</svg>
