<svg width="40" height="40" viewBox="0 0 40 40" fill="none" xmlns="http://www.w3.org/2000/svg">
<path d="M21.6667 3.33325H18.3333C12.0479 3.33325 8.90525 3.33325 6.95262 5.28587C5 7.2385 5 10.3812 5 16.6666V23.3333C5 29.6186 5 32.7614 6.95262 34.7139C8.90525 36.6666 12.0479 36.6666 18.3333 36.6666H21.6667C27.952 36.6666 31.0948 36.6666 33.0473 34.7139C35 32.7614 35 29.6186 35 23.3333V16.6666C35 10.3812 35 7.2385 33.0473 5.28587C31.0948 3.33325 27.952 3.33325 21.6667 3.33325Z" stroke="#03040B" stroke-width="2.5" stroke-linecap="round"/>
<path d="M35 20H5" stroke="#03040B" stroke-width="2.5" stroke-linecap="round"/>
<path d="M25 11.6667H15" stroke="#03040B" stroke-width="2.5" stroke-linecap="round"/>
<path d="M25 28.3333H15" stroke="#03040B" stroke-width="2.5" stroke-linecap="round"/>
</svg>
