<svg width="40" height="40" viewBox="0 0 40 40" fill="none" xmlns="http://www.w3.org/2000/svg">
<path d="M13.332 7.5V5M26.6654 7.5V5" stroke="#03040B" stroke-width="2.5" stroke-linecap="round" stroke-linejoin="round"/>
<path d="M32.5 13.3333H35M32.5 26.6666H35" stroke="#03040B" stroke-width="2.5" stroke-linecap="round" stroke-linejoin="round"/>
<path d="M13.332 35V32.5M26.6654 35V32.5" stroke="#03040B" stroke-width="2.5" stroke-linecap="round" stroke-linejoin="round"/>
<path d="M5 13.3333H7.5M5 26.6666H7.5" stroke="#03040B" stroke-width="2.5" stroke-linecap="round" stroke-linejoin="round"/>
<path d="M13.332 18.3335C13.332 15.9765 13.332 14.798 14.0643 14.0657C14.7965 13.3335 15.975 13.3335 18.332 13.3335H21.6654C24.0224 13.3335 25.2009 13.3335 25.9332 14.0657C26.6654 14.798 26.6654 15.9765 26.6654 18.3335V21.6668C26.6654 24.0238 26.6654 25.2023 25.9332 25.9347C25.2009 26.6668 24.0224 26.6668 21.6654 26.6668H18.332C15.975 26.6668 14.7965 26.6668 14.0643 25.9347C13.332 25.2023 13.332 24.0238 13.332 21.6668V18.3335Z" stroke="#03040B" stroke-width="2.5"/>
</svg>
