<svg width="28" height="28" viewBox="0 0 28 28" fill="none" xmlns="http://www.w3.org/2000/svg">
<path d="M27.1258 8.75001C27.1262 8.27035 27.014 7.7973 26.7981 7.36897C26.5822 6.94065 26.2687 6.56901 25.8829 6.28402C25.4971 5.99903 25.0497 5.80864 24.5769 5.7282C24.104 5.64776 23.6189 5.67952 23.1605 5.82092C22.7022 5.96231 22.2835 6.20939 21.9381 6.54224C21.5927 6.8751 21.3304 7.28442 21.1722 7.73724C21.014 8.19005 20.9643 8.6737 21.0273 9.14921C21.0902 9.62472 21.264 10.0788 21.5346 10.4749L18.6044 14.0842L15.9696 8.02813C16.4501 7.62368 16.7947 7.08126 16.9566 6.47438C17.1184 5.86751 17.0898 5.22553 16.8745 4.63548C16.6593 4.04542 16.2678 3.53582 15.7532 3.17575C15.2385 2.81568 14.6256 2.62256 13.9975 2.62256C13.3694 2.62256 12.7565 2.81568 12.2419 3.17575C11.7272 3.53582 11.3358 4.04542 11.1205 4.63548C10.9052 5.22553 10.8766 5.86751 11.0385 6.47438C11.2004 7.08126 11.5449 7.62368 12.0255 8.02813L9.39721 14.0809L6.46705 10.4716C6.84345 9.92004 7.02929 9.26061 6.99625 8.5937C6.96322 7.92678 6.71312 7.28894 6.28405 6.77732C5.85498 6.26569 5.27045 5.90831 4.61949 5.75962C3.96853 5.61092 3.2868 5.67905 2.67814 5.95364C2.06948 6.22822 1.56724 6.69421 1.24791 7.28063C0.928585 7.86705 0.809665 8.54177 0.909266 9.20203C1.00887 9.86229 1.32153 10.4719 1.79964 10.938C2.27775 11.4042 2.8951 11.7013 3.55768 11.7841L5.14143 21.2877C5.20951 21.6962 5.42032 22.0674 5.73635 22.3352C6.05238 22.603 6.45315 22.7499 6.86736 22.75H21.1342C21.5485 22.7499 21.9492 22.603 22.2653 22.3352C22.5813 22.0674 22.7921 21.6962 22.8602 21.2877L24.4428 11.7884C25.1835 11.6959 25.8649 11.3361 26.3589 10.7766C26.853 10.2171 27.1257 9.49643 27.1258 8.75001ZM14.0008 4.37501C14.2604 4.37501 14.5141 4.45199 14.73 4.5962C14.9458 4.74042 15.1141 4.94541 15.2134 5.18524C15.3127 5.42506 15.3387 5.68896 15.2881 5.94356C15.2374 6.19816 15.1124 6.43203 14.9289 6.61559C14.7453 6.79914 14.5115 6.92415 14.2569 6.97479C14.0023 7.02543 13.7384 6.99944 13.4985 6.9001C13.2587 6.80076 13.0537 6.63253 12.9095 6.41669C12.7653 6.20085 12.6883 5.9471 12.6883 5.68751C12.6883 5.33941 12.8266 5.00557 13.0727 4.75943C13.3189 4.51329 13.6527 4.37501 14.0008 4.37501ZM2.6258 8.75001C2.6258 8.49042 2.70278 8.23666 2.847 8.02082C2.99122 7.80498 3.1962 7.63676 3.43603 7.53742C3.67586 7.43808 3.93976 7.41208 4.19436 7.46273C4.44896 7.51337 4.68282 7.63837 4.86638 7.82193C5.04993 8.00549 5.17494 8.23935 5.22558 8.49395C5.27622 8.74855 5.25023 9.01245 5.15089 9.25228C5.05155 9.49211 4.88333 9.69709 4.66749 9.84131C4.45165 9.98553 4.19789 10.0625 3.9383 10.0625C3.5902 10.0625 3.25636 9.92423 3.01022 9.67809C2.76408 9.43194 2.6258 9.0981 2.6258 8.75001ZM24.0633 10.0625C23.8037 10.0625 23.55 9.98553 23.3341 9.84131C23.1183 9.69709 22.9501 9.49211 22.8507 9.25228C22.7514 9.01245 22.7254 8.74855 22.776 8.49395C22.8267 8.23935 22.9517 8.00549 23.1352 7.82193C23.3188 7.63837 23.5526 7.51337 23.8072 7.46273C24.0618 7.41208 24.3257 7.43808 24.5656 7.53742C24.8054 7.63676 25.0104 7.80498 25.1546 8.02082C25.2988 8.23666 25.3758 8.49042 25.3758 8.75001C25.3758 9.0981 25.2375 9.43194 24.9914 9.67809C24.7452 9.92423 24.4114 10.0625 24.0633 10.0625Z" fill="#FE532C"/>
</svg>
