<svg width="260" height="110" viewBox="0 0 260 110" fill="none" xmlns="http://www.w3.org/2000/svg">
<g opacity="0.3">
<path d="M62.53 162C49.2257 162 37.9171 158.718 28.6041 152.155C19.2912 145.442 12.1956 136.044 7.31734 123.961C2.43911 111.729 0 97.4088 0 81C0 64.5912 2.43911 50.3453 7.31734 38.2624C12.1956 26.0304 19.2912 16.6326 28.6041 10.0691C37.9171 3.35635 49.2257 0 62.53 0C75.9821 0 87.2907 3.35635 96.4558 10.0691C105.769 16.6326 112.864 26.0304 117.743 38.2624C122.621 50.3453 125.06 64.5912 125.06 81C125.06 97.4088 122.621 111.729 117.743 123.961C112.864 136.044 105.769 145.442 96.4558 152.155C87.2907 158.718 75.9821 162 62.53 162ZM62.53 140.072C75.6864 140.072 85.2951 135 91.3559 124.856C97.5645 114.713 100.669 100.094 100.669 81C100.669 62.0552 97.5645 47.5111 91.3559 37.3674C85.2951 27.2238 75.6864 22.1519 62.53 22.1519C49.5214 22.1519 39.9128 27.2238 33.7041 37.3674C27.4955 47.5111 24.3911 62.0552 24.3911 81C24.3911 100.094 27.4955 114.713 33.7041 124.856C39.9128 135 49.5214 140.072 62.53 140.072Z" fill="black" fill-opacity="0.5"/>
<path d="M202.348 162C190.818 162 180.47 160.135 171.305 156.406C162.14 152.677 154.822 147.157 149.353 139.848C144.031 132.39 141.149 122.992 140.705 111.655H165.096C165.096 117.025 166.501 121.948 169.309 126.423C172.118 130.898 176.331 134.478 181.948 137.163C187.566 139.848 194.366 141.191 202.348 141.191C213.287 141.191 221.565 138.58 227.183 133.359C232.8 127.989 235.609 121.5 235.609 113.892C235.609 107.478 233.909 102.257 230.509 98.2293C227.109 94.2017 222.452 91.2182 216.539 89.279C210.626 87.1906 203.974 86.1464 196.583 86.1464H182.17V65.5608H196.583C206.635 65.5608 214.766 63.6216 220.974 59.7431C227.331 55.7155 230.509 49.9724 230.509 42.5138C230.509 35.9503 227.996 30.7293 222.97 26.8508C218.092 22.9724 211.144 21.0331 202.126 21.0331C192.222 21.0331 184.535 23.3453 179.066 27.9696C173.744 32.5939 170.788 38.4116 170.196 45.4227H145.805C146.249 36.174 148.762 28.1934 153.344 21.4807C158.075 14.6188 164.579 9.3232 172.857 5.59392C181.283 1.86464 191.04 0 202.126 0C213.509 0 223.118 1.86464 230.952 5.59392C238.787 9.17403 244.626 14.0967 248.47 20.3619C252.461 26.4779 254.457 33.2652 254.457 40.7238C254.457 49.0773 251.944 56.3867 246.917 62.6519C242.039 68.9171 235.387 73.1685 226.961 75.4061C236.57 77.047 244.478 81.2983 250.687 88.1602C256.896 95.0221 260 103.823 260 114.564C260 123.066 257.783 130.972 253.348 138.282C249.061 145.442 242.631 151.185 234.057 155.511C225.483 159.837 214.913 162 202.348 162Z" fill="black" fill-opacity="0.5"/>
</g>
</svg>
