<svg width="261" height="107" viewBox="0 0 261 107" fill="none" xmlns="http://www.w3.org/2000/svg">
<g opacity="0.3">
<path d="M62.9854 162C49.5842 162 38.1933 158.718 28.8125 152.155C19.4317 145.442 12.2844 136.044 7.37063 123.961C2.45688 111.729 0 97.4088 0 81C0 64.5912 2.45688 50.3453 7.37063 38.2624C12.2844 26.0304 19.4317 16.6326 28.8125 10.0691C38.1933 3.35635 49.5842 0 62.9854 0C76.5354 0 87.9264 3.35635 97.1583 10.0691C106.539 16.6326 113.686 26.0304 118.6 38.2624C123.514 50.3453 125.971 64.5912 125.971 81C125.971 97.4088 123.514 111.729 118.6 123.961C113.686 136.044 106.539 145.442 97.1583 152.155C87.9264 158.718 76.5354 162 62.9854 162ZM62.9854 140.072C76.2376 140.072 85.9162 135 92.0212 124.856C98.275 114.713 101.402 100.094 101.402 81C101.402 62.0552 98.275 47.5111 92.0212 37.3674C85.9162 27.2238 76.2376 22.1519 62.9854 22.1519C49.882 22.1519 40.2034 27.2238 33.9496 37.3674C27.6957 47.5111 24.5688 62.0552 24.5688 81C24.5688 100.094 27.6957 114.713 33.9496 124.856C40.2034 135 49.882 140.072 62.9854 140.072Z" fill="white" fill-opacity="0.5"/>
<path d="M148.207 159.315V148.575C148.207 135.597 150.068 124.931 153.791 116.577C157.513 108.224 162.874 101.362 169.872 95.9917C176.871 90.6216 185.284 85.7735 195.111 81.4475L204.045 77.4199C213.724 72.9448 221.243 68.5442 226.604 64.2182C232.113 59.7431 234.868 53.7762 234.868 46.3177C234.868 41.8425 233.825 37.6657 231.741 33.7873C229.805 29.9088 226.678 26.7762 222.36 24.3895C218.191 22.0028 212.607 20.8094 205.609 20.8094C198.759 20.8094 192.952 22.2265 188.187 25.0608C183.571 27.7459 180.072 31.326 177.69 35.8011C175.307 40.2762 174.116 45.2735 174.116 50.7928H150.441C150.589 39.7541 153.121 30.5055 158.035 23.047C163.097 15.4392 169.798 9.69613 178.136 5.81767C186.624 1.93922 196.079 0 206.502 0C217.074 0 226.231 1.86464 233.974 5.59392C241.866 9.17403 247.971 14.3204 252.289 21.0331C256.607 27.7459 258.766 35.7265 258.766 44.9751C258.766 55.7155 255.342 65.1879 248.492 73.3923C241.792 81.4475 231.592 88.6823 217.893 95.0967L202.482 102.481C194.739 105.912 188.783 109.566 184.613 113.445C180.444 117.323 177.541 121.351 175.903 125.528C174.414 129.704 173.669 134.254 173.669 139.177H261V159.315H148.207Z" fill="white" fill-opacity="0.5"/>
</g>
</svg>
