<svg width="261" height="117" viewBox="0 0 261 117" fill="none" xmlns="http://www.w3.org/2000/svg">
<g opacity="0.3">
<path d="M61.9255 162C48.7499 162 37.5506 158.718 28.3276 152.155C19.1047 145.442 12.0777 136.044 7.2466 123.961C2.41553 111.729 0 97.4088 0 81C0 64.5912 2.41553 50.3453 7.2466 38.2624C12.0777 26.0304 19.1047 16.6326 28.3276 10.0691C37.5506 3.35635 48.7499 0 61.9255 0C75.2475 0 86.4468 3.35635 95.5234 10.0691C104.746 16.6326 111.773 26.0304 116.604 38.2624C121.435 50.3453 123.851 64.5912 123.851 81C123.851 97.4088 121.435 111.729 116.604 123.961C111.773 136.044 104.746 145.442 95.5234 152.155C86.4468 158.718 75.2475 162 61.9255 162ZM61.9255 140.072C74.9547 140.072 84.4705 135 90.4727 124.856C96.6213 114.713 99.6956 100.094 99.6956 81C99.6956 62.0552 96.6213 47.5111 90.4727 37.3674C84.4705 27.2238 74.9547 22.1519 61.9255 22.1519C49.0427 22.1519 39.5269 27.2238 33.3783 37.3674C27.2297 47.5111 24.1553 62.0552 24.1553 81C24.1553 100.094 27.2297 114.713 33.3783 124.856C39.5269 135 49.0427 140.072 61.9255 140.072Z" fill="black" fill-opacity="0.5"/>
<path d="M192.048 149.693V41.395H150.325V23.4945L182.825 21.0331C185.606 20.7348 187.802 19.8398 189.412 18.3481C191.169 16.7072 192.048 14.5442 192.048 11.8591V2.68508H216.422V149.693H192.048ZM144.835 159.315V139.177H261V159.315H144.835Z" fill="black" fill-opacity="0.5"/>
</g>
</svg>
