<svg width="97" height="29" viewBox="0 0 97 29" fill="none" xmlns="http://www.w3.org/2000/svg">
<g clip-path="url(#clip0_4_665)">
<path d="M73.3768 13.1318L71.9909 21.8073C71.9435 22.135 71.9198 22.3809 71.9198 22.5449C71.9198 23.8795 72.7491 24.5469 74.4074 24.5469C74.9996 24.5469 75.6392 24.4883 76.3263 24.3713L75.7222 28.0592C74.8219 28.2464 73.8624 28.3402 72.8438 28.3402C70.8538 28.3402 69.4087 27.8601 68.5084 26.9001C67.6081 25.9401 67.158 24.699 67.158 23.1771C67.158 22.7087 67.1936 22.2287 67.2646 21.737L68.615 13.1318H65.3457L65.9498 9.37358H69.2191L69.9654 4.7373H74.7272L73.9809 9.37358H78.1031L77.499 13.1318H73.3768Z" fill="#0F0F0F"/>
<path d="M65.5597 4.49471C63.8539 4.49471 62.8707 5.3728 62.6102 7.12896L62.2548 9.37685H66.1282L65.5241 13.135H61.6507L59.2343 27.9922H54.508L56.9244 13.135H53.7617L54.3658 9.37685H57.5285L57.9194 6.91822C58.1799 5.20889 58.8789 3.79225 60.016 2.6683C61.1532 1.52095 62.847 0.947266 65.0977 0.947266C65.9506 0.947266 66.756 1.05264 67.5141 1.26338L66.9811 4.67033C66.4598 4.55326 65.9861 4.49471 65.5597 4.49471Z" fill="#0F0F0F"/>
<path d="M51.6664 6.60127C50.8372 6.60127 50.1501 6.33199 49.6054 5.79344C49.0604 5.25488 48.788 4.59925 48.788 3.82653C48.788 3.05382 49.0604 2.40989 49.6054 1.89475C50.1501 1.35619 50.8372 1.08691 51.6664 1.08691C52.4719 1.08691 53.1471 1.35619 53.692 1.89475C54.2606 2.4333 54.5448 3.07723 54.5448 3.82653C54.5448 4.59925 54.2606 5.25488 53.692 5.79344C53.1471 6.33199 52.4719 6.60127 51.6664 6.60127ZM50.1384 27.9914H45.4121L48.4327 9.37601H53.1589L50.1384 27.9914Z" fill="#0F0F0F"/>
<path d="M36.8337 21.8477L42.5195 9.37891H47.5301L38.575 27.9943H33.5644L31.7521 16.0524L26.1374 27.9943H21.0913L18.2129 9.37891H22.8326L24.4672 21.9531L30.4373 9.37891H34.9148L36.8337 21.8477Z" fill="#0F0F0F"/>
<path d="M9.1439 28.3423C6.60901 28.3423 4.67822 27.7452 3.35154 26.551C2.04856 25.3568 1.31415 23.8932 1.14832 22.1606H5.73245C5.85091 22.8864 6.20627 23.4953 6.79853 23.987C7.41449 24.4787 8.29104 24.7246 9.42819 24.7246C10.4232 24.7246 11.1813 24.5255 11.7025 24.1275C12.2474 23.7294 12.5198 23.2377 12.5198 22.6523C12.5198 22.1371 12.3303 21.7391 11.9512 21.4581C11.5959 21.1536 11.0628 20.9078 10.3521 20.7205L8.04229 20.0883C4.74929 19.1751 3.10279 17.4657 3.10279 14.9603C3.10279 13.8831 3.38708 12.8997 3.95565 12.0099C4.54793 11.0967 5.40079 10.3708 6.51424 9.83225C7.62771 9.2937 8.95439 9.02441 10.4943 9.02441C12.7923 9.02441 14.5453 9.57469 15.7536 10.6752C16.9856 11.7757 17.7199 13.1221 17.9568 14.7145H13.5504C13.4082 14.1056 13.0647 13.6021 12.5198 13.2041C11.9749 12.7826 11.2168 12.5719 10.2455 12.5719C9.36897 12.5719 8.68194 12.7709 8.18443 13.169C7.71063 13.5436 7.47371 14.0236 7.47371 14.6091C7.47371 15.452 8.1489 16.0725 9.49926 16.4706L11.7025 17.1028C13.2661 17.4774 14.5336 18.1097 15.5048 18.9995C16.4762 19.8658 16.9618 21.0015 16.9618 22.4064C16.9618 23.5069 16.6539 24.5138 16.0379 25.427C15.422 26.3167 14.5217 27.031 13.3371 27.5696C12.1526 28.0847 10.7549 28.3423 9.1439 28.3423Z" fill="#0F0F0F"/>
<path d="M91.3546 27.8181H83.6893V26.4488C83.9538 24.2423 85.0297 22.2086 86.7125 20.7351C88.3952 19.2615 90.5672 18.4508 92.8154 18.4571C90.5639 18.4627 88.3891 17.6489 86.7059 16.1711C85.0227 14.6932 83.9489 12.6545 83.6893 10.444V9.08008H91.3546C91.3546 9.17598 91.3546 9.27188 91.3546 9.36246C91.3617 11.767 92.3332 14.0707 94.056 15.7685C95.7788 17.4664 98.1124 18.4198 100.545 18.4198C98.1128 18.4283 95.7829 19.3889 94.0654 21.0913C92.3479 22.7938 91.3829 25.0995 91.3815 27.5037C91.3491 27.6262 91.3491 27.7274 91.3546 27.8181Z" fill="#0F0F0F"/>
</g>
<defs>
<clipPath id="clip0_4_665">
<rect width="101.141" height="28.3688" fill="white"/>
</clipPath>
</defs>
</svg>
