<svg width="141" height="40" viewBox="0 0 141 40" fill="none" xmlns="http://www.w3.org/2000/svg">
<g clip-path="url(#clip0_4_601)">
<path d="M138.66 21.8887C138.66 22.5931 138.61 23.197 138.509 23.7003H124.092C124.419 24.8576 125.048 25.7761 125.979 26.4554C126.91 27.1097 127.954 27.4367 129.112 27.4367C130.042 27.4367 130.961 27.2606 131.867 26.9083C132.773 26.5309 133.527 25.9774 134.131 25.2477L137.641 28.1916C135.654 30.6322 132.747 31.8525 128.923 31.8525C127.111 31.8525 125.438 31.4123 123.903 30.5316C122.393 29.6258 121.186 28.418 120.28 26.9083C119.399 25.3735 118.959 23.7003 118.959 21.8887C118.959 20.077 119.399 18.4164 120.28 16.9067C121.186 15.3719 122.393 14.1642 123.903 13.2835C125.438 12.3777 127.111 11.9248 128.923 11.9248C130.734 11.9248 132.382 12.3777 133.867 13.2835C135.352 14.1642 136.522 15.3719 137.377 16.9067C138.232 18.4164 138.66 20.077 138.66 21.8887ZM133.641 20.2658C133.364 19.0329 132.798 18.0894 131.942 17.4351C131.112 16.7558 130.105 16.4161 128.923 16.4161C127.715 16.4161 126.671 16.7558 125.79 17.4351C124.91 18.1145 124.318 19.058 124.016 20.2658H133.641Z" fill="#0F0F0F"/>
<path d="M115.568 5.02051V31.4399H110.699V5.02051H115.568Z" fill="#0F0F0F"/>
<path d="M90.1578 5.02051V31.4399H85.2891V5.02051H90.1578ZM101.707 31.4399L91.8184 21.4383L100.688 12.3424H107.368L98.31 21.4383L108.425 31.4399H101.707Z" fill="#0F0F0F"/>
<path d="M82.2934 16.4916C82.067 16.4412 81.7273 16.4161 81.2744 16.4161C79.7395 16.4161 78.5066 16.9571 77.5757 18.039C76.6446 19.0958 76.1793 20.4545 76.1793 22.1151V31.4374H71.3105V12.34H76.1793V15.1706C76.8586 14.1893 77.7014 13.4093 78.708 12.8306C79.7395 12.2267 80.9347 11.9248 82.2934 11.9248V16.4916Z" fill="#0F0F0F"/>
<path d="M61.4867 29.0219C59.7506 30.909 57.4861 31.8525 54.6932 31.8525C52.9318 31.8525 51.3089 31.4247 49.8245 30.5693C48.365 29.6886 47.195 28.4935 46.3145 26.9838C45.4589 25.449 45.0312 23.7506 45.0312 21.8887C45.0312 20.0267 45.4589 18.3409 46.3145 16.8312C47.195 15.2965 48.365 14.1013 49.8245 13.2458C51.3089 12.3651 52.9318 11.9248 54.6932 11.9248C57.4861 11.9248 59.7506 12.8684 61.4867 14.7554V12.34H66.3932V31.4374H61.4867V29.0219ZM61.4867 21.8887C61.4867 20.7564 61.235 19.75 60.7319 18.8693C60.2286 17.9635 59.5366 17.259 58.6561 16.7558C57.7754 16.2525 56.7941 16.0009 55.7122 16.0009C54.6051 16.0009 53.6111 16.2525 52.7306 16.7558C51.8499 17.259 51.1579 17.9635 50.6548 18.8693C50.1515 19.75 49.9 20.7564 49.9 21.8887C49.9 23.0209 50.1515 24.0399 50.6548 24.9458C51.1579 25.8264 51.8499 26.5183 52.7306 27.0216C53.6111 27.5248 54.6051 27.7764 55.7122 27.7764C56.7941 27.7764 57.7754 27.5248 58.6561 27.0216C59.5366 26.5183 60.2286 25.8264 60.7319 24.9458C61.235 24.0399 61.4867 23.0209 61.4867 21.8887Z" fill="#0F0F0F"/>
<path d="M42.7447 21.8887C42.7447 23.7506 42.3044 25.449 41.4238 26.9838C40.5683 28.4935 39.3983 29.6886 37.9138 30.5693C36.4545 31.4247 34.8442 31.8525 33.0828 31.8525C30.3152 31.8525 28.038 30.909 26.2515 29.0219V38.7593H21.3828V12.34H26.2515V14.7554C28.038 12.8684 30.3152 11.9248 33.0828 11.9248C34.8442 11.9248 36.4545 12.3651 37.9138 13.2458C39.3983 14.1013 40.5683 15.2965 41.4238 16.8312C42.3044 18.3409 42.7447 20.0267 42.7447 21.8887ZM37.8383 21.8887C37.8383 20.7564 37.5867 19.75 37.0834 18.8693C36.5803 17.9635 35.8883 17.259 35.0076 16.7558C34.1271 16.2525 33.1458 16.0009 32.0638 16.0009C30.9568 16.0009 29.9628 16.2525 29.0822 16.7558C28.2016 17.259 27.5096 17.9635 27.0064 18.8693C26.5032 19.75 26.2515 20.7564 26.2515 21.8887C26.2515 23.0209 26.5032 24.04 27.0064 24.9458C27.5096 25.8265 28.2016 26.5183 29.0822 27.0216C29.9628 27.5248 30.9568 27.7764 32.0638 27.7764C33.1458 27.7764 34.1271 27.5248 35.0076 27.0216C35.8883 26.5183 36.5803 25.8265 37.0834 24.9458C37.5867 24.04 37.8383 23.0209 37.8383 21.8887Z" fill="#0F0F0F"/>
<path d="M0.128906 28.1561C0.279874 28.0052 1.24858 26.8225 3.03504 24.6084C3.53825 25.1871 4.20503 25.7406 5.03536 26.269C5.89083 26.7723 6.73374 27.1245 7.56406 27.3258C8.39438 27.5019 9.0989 27.59 9.67761 27.59C10.5079 27.59 11.1747 27.4517 11.6779 27.1748C12.1811 26.898 12.4328 26.4829 12.4328 25.9294C12.4328 25.4764 12.2566 25.1494 11.9044 24.9481C11.5773 24.7467 11.2124 24.5958 10.8099 24.4952C10.4324 24.3946 10.1683 24.3191 10.0173 24.2687C8.02954 23.6899 6.34374 23.1491 4.95987 22.6458C3.87793 22.2433 3.00986 21.6017 2.35568 20.721C1.72664 19.8403 1.41213 18.8716 1.41213 17.8148C1.41213 17.6388 1.43729 17.3746 1.48762 17.0223C1.76438 15.2357 2.69536 13.9526 4.28052 13.1726C5.86568 12.3674 7.6647 11.9648 9.67761 11.9648C11.0111 11.9648 12.3699 12.1536 13.7537 12.531C15.1627 12.8832 16.3327 13.3613 17.2638 13.9652L15.1502 18.1923C14.3199 17.7393 13.6028 17.387 12.9989 17.1355C12.4202 16.8839 11.766 16.6952 11.0363 16.5693C10.2563 16.4184 9.57695 16.3429 8.99826 16.3429C8.16793 16.3429 7.53889 16.4812 7.11116 16.7581C6.70857 17.0349 6.50729 17.3746 6.50729 17.7771C6.50729 18.2804 6.73374 18.6578 7.18664 18.9093C7.6647 19.1358 8.63341 19.4251 10.0928 19.7774C10.0173 19.7523 10.3947 19.8529 11.225 20.0793C13.3637 20.6328 14.9112 21.2745 15.8673 22.0042C16.8486 22.7339 17.4148 23.7907 17.5657 25.1745C17.5908 25.3255 17.6035 25.5393 17.6035 25.8161C17.6035 26.7974 17.3393 27.6906 16.8109 28.4958C16.3076 29.2758 15.6031 29.93 14.6973 30.4584C14.0431 30.8609 13.2379 31.1881 12.2818 31.4397C11.3508 31.6912 10.4576 31.8171 9.60213 31.8171C7.56406 31.8171 5.72728 31.5025 4.09181 30.8735C2.48148 30.2193 1.16052 29.3135 0.128906 28.1561Z" fill="#0F0F0F"/>
<path d="M127.158 3.14591V8.21494H126.034V3.14591H124.014V2.11816H129.17V3.14591H127.158ZM130.893 4.13881V8.21494H129.769V2.11816H130.919L132.818 5.49752L134.717 2.11816H135.866V8.21494H134.743V4.13881L133.114 6.95203H132.522L130.893 4.13881ZM137.002 7.65752C137.002 7.47752 137.065 7.32365 137.193 7.1959C137.321 7.06236 137.475 6.99558 137.655 6.99558C137.841 6.99558 137.997 7.05945 138.125 7.18719C138.253 7.31494 138.317 7.47171 138.317 7.65752C138.317 7.83752 138.25 7.99139 138.116 8.11913C137.989 8.24687 137.835 8.31074 137.655 8.31074C137.475 8.31074 137.321 8.24687 137.193 8.11913C137.065 7.99139 137.002 7.83752 137.002 7.65752Z" fill="#0F0F0F"/>
</g>
<defs>
<clipPath id="clip0_4_601">
<rect width="140.806" height="39.1936" fill="white"/>
</clipPath>
</defs>
</svg>
