<svg width="179" height="37" viewBox="0 0 179 37" fill="none" xmlns="http://www.w3.org/2000/svg">
<g clip-path="url(#clip0_4_610)">
<path d="M153.326 29.0064V12.8195H157.076V15.0448C158.326 13.673 160.155 12.5146 162.624 12.5146C165.337 12.5146 166.404 13.5816 167.044 15.1667C168.324 13.7645 170.245 12.5146 172.714 12.5146C176.006 12.5146 177.439 14.4961 177.439 17.392V29.0064H173.689V18.337C173.689 16.5385 173.171 15.7154 171.403 15.7154C169.879 15.7154 168.66 16.5689 167.257 17.8188V29.0064H163.508V18.337C163.508 16.5385 162.99 15.7154 161.221 15.7154C159.728 15.7154 158.478 16.5689 157.076 17.8188V29.0064H153.326Z" fill="#0F0F0F"/>
<path d="M140.539 29.2502C137.918 29.2502 135.967 27.787 135.967 25.1044C135.967 21.5988 138.954 19.2515 146.514 18.398V17.9102C146.514 16.2946 145.661 15.5935 143.862 15.5935C141.606 15.5935 139.777 16.6909 138.406 17.7883L136.576 15.441C138.314 13.8559 141.027 12.5146 144.38 12.5146C148.709 12.5146 150.203 14.5875 150.203 18.3675V25.0435C150.203 26.9944 150.325 28.1833 150.66 29.0064H146.88C146.667 28.3357 146.514 27.848 146.514 26.9335C144.868 28.6101 142.948 29.2502 140.539 29.2502ZM141.911 26.3543C143.832 26.3543 145.325 25.6227 146.514 24.4948V20.9281C142.033 21.5378 139.655 22.6352 139.655 24.4033C139.655 25.6836 140.539 26.3543 141.911 26.3543Z" fill="#0F0F0F"/>
<path d="M125.865 29.0064V12.8195H129.615V15.4715H129.676C130.682 13.8559 132.419 12.5146 135.498 12.5146H135.742L135.62 15.9593C135.437 15.9288 134.827 15.8983 134.614 15.8983C132.206 15.8983 130.682 17.0262 129.615 18.7638V29.0064H125.865Z" fill="#0F0F0F"/>
<path d="M114.982 35.286C109.403 35.286 107.178 33.6704 107.178 31.3231C107.178 29.7075 108.184 28.5491 109.83 27.9089C109.007 27.4822 108.58 26.8115 108.58 25.9275C108.58 24.7081 109.555 23.7022 110.775 22.9706C109.129 21.9341 108.214 20.288 108.214 18.3065C108.214 14.9838 110.775 12.5146 115.012 12.5146C117.237 12.5146 118.884 13.2463 119.981 14.2217C121.017 13.3987 122.664 12.7585 124.005 12.6366V15.6849C123.273 15.6849 122.237 15.7764 121.17 16.1117C121.536 16.6909 121.749 17.453 121.749 18.3065C121.749 21.6902 119.219 24.068 115.012 24.068C114.098 24.068 113.549 23.946 112.756 23.7326C112.269 24.007 111.933 24.3423 111.933 24.7691C111.933 25.4093 112.36 25.6226 113.793 25.7446L116.658 25.9275C121.444 26.2323 123.334 27.5126 123.334 30.3476C123.334 33.6704 119.981 35.286 114.982 35.286ZM115.073 21.4768C117.115 21.4768 118.335 20.4099 118.335 18.4285C118.335 16.4165 117.176 15.3191 115.043 15.3191C112.97 15.3191 111.75 16.447 111.75 18.4285C111.75 20.4099 113 21.4768 115.073 21.4768ZM115.561 32.573C118.304 32.573 120.011 31.8414 120.011 30.683C120.011 29.5246 119.188 29.0978 115.896 28.8844L113.092 28.7015C112.756 28.7015 112.451 28.671 112.116 28.6101C111.049 29.0978 110.622 29.8599 110.622 30.683C110.622 32.1157 112.269 32.573 115.561 32.573Z" fill="#0F0F0F"/>
<path d="M103.784 29.2186C99.669 29.2186 98.785 27.6944 98.785 24.7679V15.8057H95.9805V12.8182H98.785V7.17871H102.534V12.8182H106.711V15.8057H102.534V23.8229C102.534 25.5605 103.053 26.2616 104.912 26.2616C105.461 26.2616 106.162 26.1702 106.528 26.0482V29.0052C106.132 29.0966 104.729 29.2186 103.784 29.2186Z" fill="#0F0F0F"/>
<path d="M88.4256 29.006V15.8065H85.6211V12.819H88.4256V11.1729C88.4256 8.45983 89.5535 6.35645 93.6688 6.35645C94.37 6.35645 95.6198 6.47838 95.8942 6.50886V9.40483C95.6503 9.34387 95.0406 9.2829 94.6138 9.2829C93.2725 9.2829 92.1751 9.64871 92.1751 11.3863V12.819H95.7112V15.8065H92.1751V29.006H88.4256Z" fill="#0F0F0F"/>
<path d="M74.2327 29.2502C71.6111 29.2502 69.6602 27.787 69.6602 25.1044C69.6602 21.5988 72.6476 19.2515 80.2076 18.398V17.9102C80.2076 16.2946 79.354 15.5935 77.5555 15.5935C75.2997 15.5935 73.4706 16.6909 72.0989 17.7883L70.2698 15.441C72.0074 13.8559 74.7205 12.5146 78.0737 12.5146C82.4024 12.5146 83.8961 14.5875 83.8961 18.3675V25.0435C83.8961 26.9944 84.0181 28.1833 84.3534 29.0064H80.5734C80.36 28.3357 80.2076 27.848 80.2076 26.9335C78.5614 28.6101 76.641 29.2502 74.2327 29.2502ZM75.6045 26.3543C77.525 26.3543 79.0187 25.6227 80.2076 24.4948V20.9281C75.7264 21.5378 73.3487 22.6352 73.3487 24.4033C73.3487 25.6836 74.2327 26.3543 75.6045 26.3543Z" fill="#0F0F0F"/>
<path d="M59.5566 29.0064V12.8195H63.3062V15.4715H63.3671C64.3731 13.8559 66.1107 12.5146 69.1895 12.5146H69.4334L69.3115 15.9593C69.1286 15.9288 68.5189 15.8983 68.3055 15.8983C65.8973 15.8983 64.3731 17.0262 63.3062 18.7638V29.0064H59.5566Z" fill="#0F0F0F"/>
<path d="M47.8897 29.4321C42.0977 29.4321 37.9824 25.4387 37.9824 17.6653C37.9824 10.1053 42.2197 6.02051 47.8897 6.02051C53.1329 6.02051 55.6326 8.91648 56.6385 13.0318L53.011 14.0683C52.1574 11.0808 50.8466 9.55664 47.8592 9.55664C44.0487 9.55664 41.8234 12.5136 41.8234 17.6348C41.8234 23 44.1097 25.9569 47.9202 25.9569C50.8466 25.9569 52.4927 24.4937 53.3463 21.11L56.9739 21.9331C55.8764 26.4142 53.1024 29.4321 47.8897 29.4321Z" fill="#0F0F0F"/>
<mask id="mask0_4_610" style="mask-type:luminance" maskUnits="userSpaceOnUse" x="0" y="1" width="31" height="31">
<path d="M30.7299 1.43262H0.246094V31.9165H30.7299V1.43262Z" fill="white"/>
</mask>
<g mask="url(#mask0_4_610)">
<path d="M15.527 1.43262V16.6746L8.87898 10.0246C8.2611 9.4018 7.9125 8.56115 7.9082 7.68373V1.43262H15.527Z" fill="#0F0F0F"/>
<path d="M30.7189 16.6789H15.4727L22.1295 10.029C22.4395 9.71563 22.8098 9.46812 23.2179 9.30127C23.6259 9.13441 24.0634 9.05165 24.5043 9.05795H30.7536L30.7189 16.6789Z" fill="#0F0F0F"/>
<path d="M15.4727 31.9089V16.667L22.1207 23.3255C22.4344 23.6356 22.6821 24.0058 22.8489 24.4141C23.0158 24.8223 23.0983 25.2601 23.0914 25.7012V31.9523L15.4727 31.9089Z" fill="#0F0F0F"/>
<path d="M0.246094 16.667H15.4837L8.83565 23.317C8.21513 23.9381 7.37334 24.2874 6.49541 24.288H0.246094V16.667Z" fill="#0F0F0F"/>
</g>
</g>
<defs>
<clipPath id="clip0_4_610">
<rect width="178.548" height="36.2903" fill="white"/>
</clipPath>
</defs>
</svg>
