<svg width="140" height="45" viewBox="0 0 140 45" fill="none" xmlns="http://www.w3.org/2000/svg">
<g clip-path="url(#clip0_4_588)">
<path d="M138.56 24.6329C138.56 25.6309 138.446 26.731 138.22 27.933C138.015 29.1125 137.652 30.2127 137.131 31.2333C136.632 32.2539 135.963 33.1044 135.124 33.7849C134.307 34.4653 133.275 34.8056 132.027 34.8056C131.71 34.8056 131.381 34.7829 131.041 34.7375C130.701 34.6922 130.372 34.6128 130.054 34.4994C129.759 34.386 129.487 34.2386 129.238 34.0571C128.988 33.853 128.795 33.5922 128.659 33.2745L128.353 38.1737C128.33 38.6954 128.308 39.3192 128.285 40.045C128.285 40.7708 128.194 41.4627 128.013 42.1204C127.854 42.7781 127.571 43.3338 127.162 43.7874C126.777 44.2637 126.21 44.5019 125.461 44.5019C125.03 44.5019 124.667 44.2752 124.372 43.8215C124.078 43.3905 123.839 42.8349 123.658 42.1543C123.499 41.474 123.374 40.7141 123.284 39.8749C123.193 39.0357 123.136 38.2305 123.114 37.4593C123.091 36.6882 123.08 35.985 123.08 35.3499C123.08 34.7148 123.08 34.2499 123.08 33.9551C123.08 32.4354 123.068 30.927 123.046 29.4301C123.023 27.9104 123.012 26.3907 123.012 24.8712C123.012 24.599 123.012 24.1793 123.012 23.6123C123.012 23.0225 123.034 22.3874 123.08 21.7071C123.125 21.0266 123.193 20.3235 123.284 19.5977C123.397 18.8719 123.556 18.2141 123.76 17.6244C123.964 17.012 124.225 16.5244 124.543 16.1615C124.86 15.7758 125.246 15.583 125.699 15.583C125.994 15.583 126.255 15.6737 126.482 15.8552C126.731 16.014 126.935 16.2294 127.094 16.5016C127.276 16.7511 127.423 17.0233 127.537 17.3181C127.65 17.6131 127.741 17.8853 127.809 18.1347C128.512 17.3409 129.317 16.7398 130.224 16.3316C131.154 15.9233 132.141 15.7192 133.184 15.7192C134.273 15.7192 135.158 16.0253 135.838 16.6377C136.541 17.2502 137.085 18.01 137.471 18.9172C137.879 19.8245 138.163 20.7998 138.322 21.8431C138.48 22.8639 138.56 23.7938 138.56 24.6329ZM133.695 24.3608C133.695 24.0205 133.66 23.6804 133.593 23.3401C133.547 22.9772 133.445 22.6483 133.286 22.3535C133.15 22.0359 132.946 21.7865 132.674 21.605C132.402 21.4008 132.062 21.2987 131.653 21.2987C131.109 21.2987 130.531 21.4802 129.918 21.8431C129.328 22.1833 128.886 22.5802 128.591 23.0338C128.478 23.2153 128.41 23.5103 128.387 23.9185C128.364 24.3268 128.353 24.6329 128.353 24.837C128.353 24.9958 128.353 25.2113 128.353 25.4834C128.376 25.733 128.398 25.9938 128.421 26.266C128.444 26.5382 128.466 26.799 128.489 27.0486C128.535 27.298 128.591 27.4909 128.659 27.6269C128.727 27.831 128.875 28.0238 129.102 28.2052C129.328 28.364 129.578 28.5115 129.85 28.6475C130.122 28.7837 130.394 28.8857 130.667 28.9538C130.961 29.0218 131.211 29.0559 131.415 29.0559C131.891 29.0559 132.277 28.8744 132.572 28.5115C132.867 28.1486 133.093 27.7176 133.252 27.2187C133.434 26.7196 133.547 26.2093 133.593 25.6877C133.66 25.1433 133.695 24.701 133.695 24.3608Z" fill="#0F0F0F"/>
<path d="M120.585 29.9756C120.585 30.3838 120.563 30.9168 120.517 31.5747C120.495 32.2324 120.404 32.8788 120.245 33.5139C120.086 34.1264 119.837 34.6594 119.497 35.113C119.156 35.5667 118.68 35.7934 118.068 35.7934C117.228 35.7934 116.582 35.5212 116.128 34.9769C115.675 34.4325 115.459 33.7521 115.482 32.9356C114.756 33.5707 113.928 34.0696 112.998 34.4325C112.091 34.7954 111.161 34.9769 110.209 34.9769C109.551 34.9769 108.927 34.8181 108.337 34.5006C107.748 34.183 107.226 33.7748 106.772 33.2757C106.319 32.7768 105.956 32.2211 105.684 31.6087C105.411 30.9736 105.275 30.3498 105.275 29.7374C105.275 28.6487 105.604 27.6962 106.262 26.8796C106.942 26.0631 107.77 25.3712 108.746 24.8042C109.721 24.2145 110.753 23.7495 111.842 23.4094C112.953 23.0691 113.94 22.8422 114.801 22.7289C114.801 22.6155 114.801 22.5135 114.801 22.4227C114.824 22.332 114.836 22.23 114.836 22.1164C114.836 21.4134 114.643 20.8463 114.257 20.4154C113.872 19.9845 113.327 19.7689 112.624 19.7689C112.057 19.7689 111.569 19.8711 111.161 20.0752C110.753 20.2566 110.367 20.4721 110.004 20.7216C109.642 20.9483 109.279 21.1639 108.916 21.368C108.553 21.5494 108.145 21.6402 107.691 21.6402C107.192 21.6402 106.761 21.4814 106.398 21.1639C106.058 20.8463 105.888 20.4381 105.888 19.939C105.888 19.1906 106.103 18.5102 106.534 17.8978C106.988 17.2853 107.543 16.7749 108.201 16.3667C108.882 15.9358 109.607 15.607 110.379 15.3801C111.172 15.1306 111.898 15.0059 112.556 15.0059C113.168 15.0059 113.781 15.0853 114.393 15.2441C115.006 15.3801 115.584 15.607 116.128 15.9244C116.673 16.2193 117.16 16.5935 117.591 17.0471C118.045 17.4781 118.408 17.9885 118.68 18.5781C119.088 19.4175 119.417 20.3132 119.667 21.2659C119.916 22.1958 120.109 23.1599 120.245 24.1578C120.381 25.1332 120.472 26.1197 120.517 27.1177C120.563 28.093 120.585 29.0457 120.585 29.9756ZM115.142 28.8869L115.04 26.5733C114.994 26.5733 114.949 26.5733 114.904 26.5733C114.858 26.5507 114.813 26.5394 114.768 26.5394C114.473 26.5394 114.098 26.6188 113.645 26.7776C113.214 26.9136 112.794 27.1177 112.386 27.3899C111.978 27.6394 111.626 27.9229 111.331 28.2405C111.059 28.558 110.923 28.8869 110.923 29.2272C110.923 29.5446 111.036 29.7602 111.263 29.8736C111.49 29.9869 111.751 30.0437 112.046 30.0437C112.545 30.0437 113.078 29.9189 113.645 29.6695C114.212 29.3973 114.711 29.1364 115.142 28.8869Z" fill="#0F0F0F"/>
<path d="M105.134 12.2507C105.134 12.3641 105.02 12.693 104.794 13.2374C104.59 13.7817 104.306 14.4508 103.943 15.2447C103.58 16.0385 103.161 16.9344 102.684 17.9324C102.231 18.9077 101.754 19.917 101.255 20.9605C100.756 21.9811 100.269 22.9904 99.7924 23.9884C99.3161 24.9864 98.8738 25.8936 98.4655 26.7102C98.0799 27.504 97.751 28.1844 97.4788 28.7514C97.2066 29.2958 97.0365 29.636 96.9686 29.7722C97.6716 29.5453 98.3861 29.3638 99.1119 29.2278C99.8605 29.069 100.609 28.9896 101.357 28.9896C101.72 28.9896 102.106 29.0236 102.514 29.0917C102.922 29.1371 103.297 29.2505 103.637 29.4319C104 29.5907 104.295 29.8175 104.521 30.1123C104.771 30.3845 104.896 30.7588 104.896 31.2351C104.896 31.734 104.726 32.1877 104.385 32.596C104.045 32.9816 103.603 33.3218 103.059 33.6166C102.537 33.9115 101.936 34.161 101.255 34.3651C100.575 34.5693 99.8944 34.7393 99.2139 34.8755C98.5336 35.0115 97.8872 35.1022 97.2747 35.1476C96.6623 35.2157 96.152 35.2497 95.7437 35.2497C95.222 35.2497 94.6437 35.2271 94.0086 35.1816C93.3962 35.1363 92.8065 35.0115 92.2395 34.8074C91.6724 34.6033 91.1961 34.3085 90.8106 33.9228C90.4476 33.5146 90.2662 32.9476 90.2662 32.2218C90.2662 31.7227 90.4022 31.0537 90.6744 30.2145C90.9694 29.3525 91.3095 28.4792 91.6952 27.5948C92.0807 26.6875 92.4776 25.8255 92.8859 25.009C93.3168 24.1698 93.657 23.5121 93.9065 23.0357C94.6776 21.6069 95.4489 20.1892 96.22 18.783C97.0139 17.3541 97.7851 15.9138 98.5336 14.4622C97.7397 14.9158 96.8324 15.3355 95.8118 15.721C94.7912 16.0839 93.8271 16.2654 92.9199 16.2654C92.6024 16.2654 92.2622 16.2199 91.8993 16.1292C91.559 16.0385 91.2415 15.9138 90.9466 15.755C90.6744 15.5735 90.4476 15.3468 90.2662 15.0746C90.0847 14.8024 89.994 14.4849 89.994 14.1219C89.994 13.5322 90.1868 12.9879 90.5723 12.4889C90.9579 11.9899 91.4569 11.5363 92.0694 11.128C92.7045 10.7197 93.4075 10.3568 94.1787 10.0393C94.9726 9.72175 95.7664 9.46091 96.5602 9.25677C97.3541 9.05264 98.1026 8.89387 98.8057 8.78047C99.5315 8.66705 100.144 8.61035 100.643 8.61035C101.958 8.61035 103.036 8.87119 103.875 9.39286C104.714 9.91454 105.134 10.8672 105.134 12.2507Z" fill="#0F0F0F"/>
<path d="M83.8999 35.7241C83.5144 35.7241 83.2082 35.5426 82.9813 35.1797C82.7546 34.8396 82.5845 34.4426 82.4711 33.9889C82.3576 33.5353 82.2783 33.0817 82.2329 32.628C82.2102 32.1518 82.1989 31.7889 82.1989 31.5393C82.1989 30.859 82.2329 30.1785 82.301 29.4981C82.3917 28.8176 82.4824 28.1372 82.5731 27.4567C82.6865 26.7763 82.7772 26.0958 82.8453 25.4154C82.936 24.7349 82.9813 24.0545 82.9813 23.374C82.9813 23.1018 82.97 22.807 82.9474 22.4894C82.9247 22.1719 82.868 21.8771 82.7772 21.6049C82.7092 21.31 82.5845 21.0719 82.403 20.8905C82.2216 20.709 81.9833 20.6183 81.6885 20.6183C81.4844 20.6183 81.2575 20.7884 81.0082 21.1285C80.7586 21.4461 80.5204 21.8204 80.2937 22.2513C80.0894 22.6595 79.908 23.0792 79.7493 23.5102C79.6132 23.9184 79.5451 24.2247 79.5451 24.4288C79.5451 24.9277 79.5451 25.4381 79.5451 25.9598C79.5679 26.4587 79.5792 26.9691 79.5792 27.4908V29.464C79.5565 29.8723 79.5224 30.2918 79.4771 30.7228C79.4317 31.1538 79.3636 31.5735 79.2729 31.9816C79.205 32.39 79.1029 32.7869 78.9668 33.1724C78.8307 33.5353 78.6493 33.8642 78.4224 34.1591C78.2183 34.4312 77.9688 34.6581 77.6739 34.8396C77.3791 35.021 77.0275 35.1118 76.6192 35.1118C76.1656 35.1118 75.7914 34.9643 75.4965 34.6695C75.2017 34.3745 74.9635 34.0003 74.782 33.5466C74.6006 33.0704 74.4644 32.5486 74.3737 31.9816C74.3058 31.392 74.249 30.8249 74.2037 30.2805C74.1809 29.7135 74.1696 29.2031 74.1696 28.7495C74.1923 28.2732 74.2037 27.899 74.2037 27.6268V26.0277C74.2037 25.1659 74.1809 24.3154 74.1356 23.4761C74.113 22.6369 74.1015 21.7977 74.1015 20.9585C74.1015 20.5049 74.1015 19.9264 74.1015 19.2233C74.1243 18.5203 74.215 17.8397 74.3737 17.182C74.5325 16.5015 74.7934 15.9232 75.1563 15.4469C75.5192 14.9706 76.0522 14.7324 76.7554 14.7324C77.0728 14.7324 77.3563 14.8345 77.6059 15.0386C77.8554 15.2428 78.0708 15.4922 78.2523 15.7872C78.4564 16.082 78.6152 16.3995 78.7285 16.7397C78.8647 17.08 78.9668 17.3748 79.0348 17.6243C79.2616 17.3067 79.5224 17.0006 79.8173 16.7057C80.1349 16.4108 80.4864 16.1501 80.872 15.9232C81.2575 15.6964 81.6885 15.515 82.1648 15.3788C82.6412 15.2428 83.1856 15.1747 83.7979 15.1747C84.9546 15.1747 85.8506 15.4582 86.4857 16.0252C87.1434 16.5696 87.6197 17.2614 87.9146 18.1006C88.2321 18.9171 88.4249 19.8017 88.493 20.7543C88.561 21.707 88.595 22.5688 88.595 23.3401C88.595 23.7256 88.561 24.3039 88.493 25.0752C88.4249 25.8236 88.3115 26.6628 88.1527 27.5928C88.0167 28.5001 87.8239 29.4413 87.5744 30.4167C87.3248 31.3692 87.03 32.2425 86.6898 33.0364C86.3495 33.8301 85.9413 34.4767 85.465 34.9756C85.0114 35.4747 84.4897 35.7241 83.8999 35.7241Z" fill="#0F0F0F"/>
<path d="M72.5254 28.7135C72.5254 29.4847 72.2758 30.2445 71.7769 30.993C71.3005 31.7188 70.6882 32.3765 69.9396 32.9663C69.2138 33.5333 68.4314 33.9982 67.5922 34.3611C66.7529 34.7014 65.9818 34.8715 65.2786 34.8715C64.0766 34.8715 62.9992 34.5767 62.0465 33.9869C61.1166 33.3745 60.3342 32.6034 59.6991 31.6735C59.064 30.7434 58.5763 29.7228 58.236 28.6114C57.9185 27.4773 57.7597 26.3773 57.7597 25.3113C57.7597 24.1772 57.9185 22.9638 58.236 21.6708C58.5536 20.378 59.0299 19.1873 59.665 18.0986C60.3227 17.0099 61.1392 16.1026 62.1146 15.3768C63.1126 14.651 64.292 14.2881 65.6529 14.2881C66.4241 14.2881 67.1612 14.4242 67.8644 14.6964C68.5674 14.9458 69.1799 15.3087 69.7016 15.7851C70.2233 16.2614 70.6428 16.8284 70.9604 17.4861C71.2779 18.144 71.4367 18.8811 71.4367 19.6977C71.4367 20.7636 71.2098 21.7616 70.7562 22.6916C70.3025 23.6215 69.7016 24.4267 68.9531 25.1071C68.2045 25.7876 67.3427 26.3433 66.3674 26.7743C65.392 27.1825 64.394 27.4094 63.3734 27.4547C63.4641 28.1124 63.725 28.5888 64.156 28.8836C64.6096 29.1784 65.1426 29.3259 65.7549 29.3259C66.2085 29.3259 66.6509 29.2126 67.0818 28.9857C67.5128 28.7589 67.9323 28.5094 68.3407 28.2372C68.7489 27.9424 69.1459 27.6815 69.5314 27.4547C69.9396 27.2279 70.348 27.1144 70.7562 27.1144C71.2098 27.1144 71.6181 27.2619 71.981 27.5567C72.3439 27.8517 72.5254 28.2372 72.5254 28.7135ZM67.0138 20.378C67.0138 20.0832 66.9344 19.7771 66.7757 19.4595C66.6169 19.142 66.3674 18.9832 66.0271 18.9832C65.5282 18.9832 65.1085 19.1192 64.7683 19.3914C64.4281 19.6409 64.1446 19.9698 63.9178 20.378C63.691 20.7636 63.5096 21.1832 63.3734 21.6369C63.26 22.0905 63.192 22.5102 63.1693 22.8957C63.4868 22.8276 63.861 22.7369 64.292 22.6235C64.7456 22.5102 65.1653 22.3627 65.5508 22.1812C65.9592 21.9771 66.2993 21.7276 66.5714 21.4328C66.8664 21.138 67.0138 20.7864 67.0138 20.378Z" fill="#0F0F0F"/>
<path d="M57.6084 12.2507C57.6084 12.3641 57.495 12.693 57.2682 13.2374C57.064 13.7817 56.7805 14.4508 56.4176 15.2447C56.0547 16.0385 55.6352 16.9344 55.1588 17.9324C54.7051 18.9077 54.2289 19.917 53.7299 20.9605C53.2309 21.9811 52.7433 22.9904 52.267 23.9884C51.7906 24.9864 51.3483 25.8936 50.9401 26.7102C50.5545 27.504 50.2256 28.1844 49.9534 28.7514C49.6812 29.2958 49.5111 29.636 49.443 29.7722C50.1462 29.5453 50.8607 29.3638 51.5865 29.2278C52.3349 29.069 53.0835 28.9896 53.832 28.9896C54.1949 28.9896 54.5804 29.0236 54.9888 29.0917C55.397 29.1371 55.7712 29.2505 56.1115 29.4319C56.4744 29.5907 56.7692 29.8175 56.9961 30.1123C57.2454 30.3845 57.3703 30.7588 57.3703 31.2351C57.3703 31.734 57.2002 32.1877 56.8599 32.596C56.5196 32.9816 56.0775 33.3218 55.5331 33.6166C55.0114 33.9115 54.4103 34.161 53.7299 34.3651C53.0494 34.5693 52.3691 34.7393 51.6885 34.8755C51.0082 35.0115 50.3618 35.1022 49.7493 35.1476C49.1369 35.2157 48.6265 35.2497 48.2183 35.2497C47.6966 35.2497 47.1183 35.2271 46.4832 35.1816C45.8708 35.1363 45.2811 35.0115 44.714 34.8074C44.147 34.6033 43.6707 34.3085 43.2852 33.9228C42.9223 33.5146 42.7408 32.9476 42.7408 32.2218C42.7408 31.7227 42.8768 31.0537 43.149 30.2145C43.4438 29.3525 43.7841 28.4792 44.1696 27.5948C44.5553 26.6875 44.9522 25.8255 45.3604 25.009C45.7914 24.1698 46.1316 23.5121 46.3812 23.0357C47.1522 21.6069 47.9235 20.1892 48.6946 18.783C49.4885 17.3541 50.2596 15.9138 51.0082 14.4622C50.2143 14.9158 49.307 15.3355 48.2864 15.721C47.2656 16.0839 46.3018 16.2654 45.3945 16.2654C45.0769 16.2654 44.7368 16.2199 44.3739 16.1292C44.0336 16.0385 43.716 15.9138 43.4212 15.755C43.149 15.5735 42.9223 15.3468 42.7408 15.0746C42.5594 14.8024 42.4686 14.4849 42.4686 14.1219C42.4686 13.5322 42.6614 12.9879 43.0469 12.4889C43.4325 11.9899 43.9316 11.5363 44.5439 11.128C45.1789 10.7197 45.8821 10.3568 46.6533 10.0393C47.4471 9.72175 48.241 9.46091 49.0348 9.25677C49.8287 9.05264 50.5772 8.89387 51.2803 8.78047C52.0061 8.66705 52.6184 8.61035 53.1175 8.61035C54.433 8.61035 55.5103 8.87119 56.3497 9.39286C57.1888 9.91454 57.6084 10.8672 57.6084 12.2507Z" fill="#0F0F0F"/>
<mask id="mask0_4_588" style="mask-type:luminance" maskUnits="userSpaceOnUse" x="-5" y="1" width="43" height="43">
<path d="M37.9405 1.38867H-4.15628V43.4855H37.9405V1.38867Z" fill="white"/>
</mask>
<g mask="url(#mask0_4_588)">
<path d="M-4.15628 22.425H16.8921V1.38867C16.01 6.65161 13.5076 11.5076 9.73419 15.2789C5.96077 19.0502 1.10466 21.5486 -4.15628 22.425Z" fill="#0F0F0F"/>
<path d="M16.8711 43.487V22.4268H37.9194C32.6544 23.3031 27.7949 25.8044 24.0208 29.5806C20.2468 33.3568 17.7468 38.2191 16.8711 43.487Z" fill="#0F0F0F"/>
</g>
</g>
<defs>
<clipPath id="clip0_4_588">
<rect width="143.71" height="45" fill="white" transform="translate(-4.20901)"/>
</clipPath>
</defs>
</svg>
