<svg width="141" height="40" viewBox="0 0 141 40" fill="none" xmlns="http://www.w3.org/2000/svg">
<g clip-path="url(#clip0_4_641)">
<path d="M138.658 21.8887C138.658 22.5931 138.608 23.197 138.507 23.7003H124.09C124.417 24.8576 125.046 25.7761 125.977 26.4554C126.908 27.1097 127.952 27.4367 129.11 27.4367C130.041 27.4367 130.959 27.2606 131.865 26.9083C132.771 26.5309 133.525 25.9774 134.129 25.2477L137.639 28.1916C135.652 30.6322 132.745 31.8525 128.921 31.8525C127.109 31.8525 125.436 31.4123 123.901 30.5316C122.392 29.6258 121.184 28.418 120.278 26.9083C119.397 25.3735 118.957 23.7003 118.957 21.8887C118.957 20.077 119.397 18.4164 120.278 16.9067C121.184 15.3719 122.392 14.1642 123.901 13.2835C125.436 12.3777 127.109 11.9248 128.921 11.9248C130.733 11.9248 132.381 12.3777 133.865 13.2835C135.35 14.1642 136.52 15.3719 137.375 16.9067C138.231 18.4164 138.658 20.077 138.658 21.8887ZM133.639 20.2658C133.362 19.0329 132.796 18.0894 131.94 17.4351C131.11 16.7558 130.104 16.4161 128.921 16.4161C127.713 16.4161 126.669 16.7558 125.788 17.4351C124.908 18.1145 124.316 19.058 124.014 20.2658H133.639Z" fill="#0F0F0F"/>
<path d="M115.566 5.02051V31.4399H110.697V5.02051H115.566Z" fill="#0F0F0F"/>
<path d="M90.1578 5.02051V31.4399H85.2891V5.02051H90.1578ZM101.707 31.4399L91.8184 21.4383L100.688 12.3424H107.368L98.31 21.4383L108.425 31.4399H101.707Z" fill="#0F0F0F"/>
<path d="M82.2915 16.4916C82.065 16.4412 81.7254 16.4161 81.2725 16.4161C79.7375 16.4161 78.5047 16.9571 77.5738 18.039C76.6427 19.0958 76.1773 20.4545 76.1773 22.1151V31.4374H71.3086V12.34H76.1773V15.1706C76.8567 14.1893 77.6995 13.4093 78.706 12.8306C79.7375 12.2267 80.9328 11.9248 82.2915 11.9248V16.4916Z" fill="#0F0F0F"/>
<path d="M61.4887 29.0219C59.7525 30.909 57.488 31.8525 54.6951 31.8525C52.9337 31.8525 51.3108 31.4247 49.8264 30.5693C48.367 29.6886 47.197 28.4935 46.3164 26.9838C45.4608 25.449 45.0332 23.7506 45.0332 21.8887C45.0332 20.0267 45.4608 18.3409 46.3164 16.8312C47.197 15.2965 48.367 14.1013 49.8264 13.2458C51.3108 12.3651 52.9337 11.9248 54.6951 11.9248C57.488 11.9248 59.7525 12.8684 61.4887 14.7554V12.34H66.3951V31.4374H61.4887V29.0219ZM61.4887 21.8887C61.4887 20.7564 61.237 19.75 60.7338 18.8693C60.2306 17.9635 59.5386 17.259 58.658 16.7558C57.7773 16.2525 56.796 16.0009 55.7142 16.0009C54.607 16.0009 53.6131 16.2525 52.7325 16.7558C51.8519 17.259 51.1599 17.9635 50.6567 18.8693C50.1535 19.75 49.9019 20.7564 49.9019 21.8887C49.9019 23.0209 50.1535 24.0399 50.6567 24.9458C51.1599 25.8264 51.8519 26.5183 52.7325 27.0216C53.6131 27.5248 54.607 27.7764 55.7142 27.7764C56.796 27.7764 57.7773 27.5248 58.658 27.0216C59.5386 26.5183 60.2306 25.8264 60.7338 24.9458C61.237 24.0399 61.4887 23.0209 61.4887 21.8887Z" fill="#0F0F0F"/>
<path d="M42.7467 21.8887C42.7467 23.7506 42.3064 25.449 41.4257 26.9838C40.5703 28.4935 39.4003 29.6886 37.9157 30.5693C36.4564 31.4247 34.8461 31.8525 33.0847 31.8525C30.3171 31.8525 28.04 30.909 26.2535 29.0219V38.7593H21.3848V12.34H26.2535V14.7554C28.04 12.8684 30.3171 11.9248 33.0847 11.9248C34.8461 11.9248 36.4564 12.3651 37.9157 13.2458C39.4003 14.1013 40.5703 15.2965 41.4257 16.8312C42.3064 18.3409 42.7467 20.0267 42.7467 21.8887ZM37.8402 21.8887C37.8402 20.7564 37.5887 19.75 37.0854 18.8693C36.5823 17.9635 35.8903 17.259 35.0096 16.7558C34.129 16.2525 33.1477 16.0009 32.0657 16.0009C30.9587 16.0009 29.9648 16.2525 29.0841 16.7558C28.2036 17.259 27.5116 17.9635 27.0083 18.8693C26.5052 19.75 26.2535 20.7564 26.2535 21.8887C26.2535 23.0209 26.5052 24.04 27.0083 24.9458C27.5116 25.8265 28.2036 26.5183 29.0841 27.0216C29.9648 27.5248 30.9587 27.7764 32.0657 27.7764C33.1477 27.7764 34.129 27.5248 35.0096 27.0216C35.8903 26.5183 36.5823 25.8265 37.0854 24.9458C37.5887 24.04 37.8402 23.0209 37.8402 21.8887Z" fill="#0F0F0F"/>
<path d="M0.128906 28.1561C0.279874 28.0052 1.24858 26.8225 3.03504 24.6084C3.53825 25.1871 4.20503 25.7406 5.03536 26.269C5.89083 26.7723 6.73374 27.1245 7.56406 27.3258C8.39438 27.5019 9.0989 27.59 9.67761 27.59C10.5079 27.59 11.1747 27.4517 11.6779 27.1748C12.1811 26.898 12.4328 26.4829 12.4328 25.9294C12.4328 25.4764 12.2566 25.1494 11.9044 24.9481C11.5773 24.7467 11.2124 24.5958 10.8099 24.4952C10.4324 24.3946 10.1683 24.3191 10.0173 24.2687C8.02954 23.6899 6.34374 23.1491 4.95987 22.6458C3.87793 22.2433 3.00986 21.6017 2.35568 20.721C1.72664 19.8403 1.41213 18.8716 1.41213 17.8148C1.41213 17.6388 1.43729 17.3746 1.48762 17.0223C1.76438 15.2357 2.69536 13.9526 4.28052 13.1726C5.86568 12.3674 7.6647 11.9648 9.67761 11.9648C11.0111 11.9648 12.3699 12.1536 13.7537 12.531C15.1627 12.8832 16.3327 13.3613 17.2638 13.9652L15.1502 18.1923C14.3199 17.7393 13.6028 17.387 12.9989 17.1355C12.4202 16.8839 11.766 16.6952 11.0363 16.5693C10.2563 16.4184 9.57695 16.3429 8.99826 16.3429C8.16793 16.3429 7.53889 16.4812 7.11116 16.7581C6.70857 17.0349 6.50729 17.3746 6.50729 17.7771C6.50729 18.2804 6.73374 18.6578 7.18664 18.9093C7.6647 19.1358 8.63341 19.4251 10.0928 19.7774C10.0173 19.7523 10.3947 19.8529 11.225 20.0793C13.3637 20.6328 14.9112 21.2745 15.8673 22.0042C16.8486 22.7339 17.4148 23.7907 17.5657 25.1745C17.5908 25.3255 17.6035 25.5393 17.6035 25.8161C17.6035 26.7974 17.3393 27.6906 16.8109 28.4958C16.3076 29.2758 15.6031 29.93 14.6973 30.4584C14.0431 30.8609 13.2379 31.1881 12.2818 31.4397C11.3508 31.6912 10.4576 31.8171 9.60213 31.8171C7.56406 31.8171 5.72728 31.5025 4.09181 30.8735C2.48148 30.2193 1.16052 29.3135 0.128906 28.1561Z" fill="#0F0F0F"/>
<path d="M127.158 3.14591V8.21494H126.034V3.14591H124.014V2.11816H129.17V3.14591H127.158ZM130.893 4.13881V8.21494H129.769V2.11816H130.919L132.818 5.49752L134.717 2.11816H135.866V8.21494H134.743V4.13881L133.114 6.95203H132.522L130.893 4.13881ZM137.002 7.65752C137.002 7.47752 137.065 7.32365 137.193 7.1959C137.321 7.06236 137.475 6.99558 137.655 6.99558C137.841 6.99558 137.997 7.05945 138.125 7.18719C138.253 7.31494 138.317 7.47171 138.317 7.65752C138.317 7.83752 138.25 7.99139 138.116 8.11913C137.989 8.24687 137.835 8.31074 137.655 8.31074C137.475 8.31074 137.321 8.24687 137.193 8.11913C137.065 7.99139 137.002 7.83752 137.002 7.65752Z" fill="#0F0F0F"/>
</g>
<defs>
<clipPath id="clip0_4_641">
<rect width="140.806" height="39.1936" fill="white"/>
</clipPath>
</defs>
</svg>
