<svg width="120" height="32" viewBox="0 0 120 32" fill="none" xmlns="http://www.w3.org/2000/svg">
<path d="M111.608 25.6974C109.824 25.6974 108.311 25.2731 107.071 24.4243C105.852 23.5755 104.938 22.4765 104.329 21.1272C103.741 19.7561 103.447 18.2979 103.447 16.7528C103.447 15.1858 103.741 13.7277 104.329 12.3783C104.938 11.0072 105.852 9.8973 107.071 9.04854C108.311 8.19977 109.835 7.77539 111.641 7.77539C114.035 7.77539 115.928 8.54798 117.321 10.0932C118.736 11.6384 119.443 13.8691 119.443 16.7854V17.8627H107.299V18.1238C107.299 18.8856 107.473 19.6037 107.822 20.2784C108.192 20.9531 108.692 21.4971 109.323 21.9106C109.976 22.3024 110.716 22.4982 111.543 22.4982C112.479 22.4982 113.273 22.2806 113.926 21.8454C114.579 21.3883 115.069 20.779 115.395 20.0172H119.28C118.823 21.6712 117.942 23.0314 116.636 24.0978C115.33 25.1642 113.654 25.6974 111.608 25.6974ZM115.624 15.2511C115.58 13.6842 115.188 12.5415 114.449 11.8233C113.73 11.0834 112.784 10.7134 111.608 10.7134C110.346 10.7134 109.334 11.1269 108.572 11.9539C107.833 12.7592 107.441 13.8583 107.397 15.2511H115.624Z" fill="#0F0F0F"/>
<path d="M95.1219 25.6974C93.6855 25.6974 92.445 25.4254 91.4004 24.8813C90.3557 24.3372 89.5614 23.6299 89.0173 22.7594C88.4732 21.8671 88.2012 20.9313 88.2012 19.952V19.7561H92.0859V19.952C92.0859 20.6266 92.3579 21.236 92.902 21.7801C93.4461 22.3241 94.2187 22.5962 95.2198 22.5962C96.0468 22.5962 96.7214 22.4003 97.2438 22.0086C97.7661 21.6168 98.0272 21.0728 98.0272 20.3763C98.0272 19.767 97.7987 19.2882 97.3417 18.94C96.9064 18.5918 96.3624 18.3741 95.7095 18.2871L93.6528 17.8953C92.3253 17.6777 91.1501 17.188 90.1272 16.4263C89.1261 15.6428 88.6255 14.4785 88.6255 12.9333C88.6255 11.3228 89.2132 10.0605 90.3884 9.14647C91.5636 8.23242 93.0761 7.77539 94.926 7.77539C96.2753 7.77539 97.4396 8.02568 98.419 8.52623C99.4201 9.02677 100.171 9.67967 100.671 10.4849C101.194 11.2901 101.455 12.1607 101.455 13.0965V13.2271H97.5702V13.1291C97.5702 12.5415 97.3417 11.9866 96.8847 11.4643C96.4494 10.9419 95.753 10.6808 94.7954 10.6808C93.9902 10.6808 93.3482 10.8875 92.8694 11.301C92.3906 11.6928 92.1512 12.2151 92.1512 12.868C92.1512 13.4338 92.3688 13.8909 92.8041 14.2391C93.2611 14.5873 93.8269 14.8267 94.5016 14.9573L96.7541 15.349C98.1687 15.632 99.3548 16.1652 100.312 16.9486C101.27 17.7321 101.749 18.8529 101.749 20.311C101.749 21.3774 101.455 22.3241 100.867 23.1511C100.301 23.9564 99.5071 24.5875 98.4843 25.0445C97.4832 25.4798 96.3624 25.6974 95.1219 25.6974Z" fill="#0F0F0F"/>
<path d="M84.1925 25.5722C82.6908 25.5722 81.5809 25.3437 80.8627 24.8867C80.1445 24.4079 79.6875 23.8203 79.4916 23.1239C79.3175 22.4057 79.2305 21.4916 79.2305 20.3817V0.958008H83.1805V19.6309C83.1805 20.4361 83.2131 21.0346 83.2784 21.4263C83.3655 21.8181 83.5831 22.1336 83.9313 22.373C84.2795 22.5907 84.8345 22.6995 85.5962 22.6995C85.8791 22.6995 86.2164 22.6777 86.6082 22.6342V25.3763C85.9118 25.5069 85.1065 25.5722 84.1925 25.5722Z" fill="#0F0F0F"/>
<path d="M75.8511 25.4435H71.8685V22.5381H71.6726C71.2591 23.4304 70.6062 24.1921 69.7139 24.8233C68.8434 25.4544 67.777 25.77 66.5147 25.77C65.0131 25.77 63.8052 25.4109 62.8912 24.6927C61.9771 23.9527 61.3351 23.0387 60.9651 21.9505C60.5951 20.8624 60.4102 19.7416 60.4102 18.5881V8.20703H64.3602V17.9679C64.3602 19.3607 64.6866 20.4489 65.3395 21.2323C65.9924 22.0158 66.8956 22.4076 68.049 22.4076C69.2895 22.4076 70.2362 21.9941 70.8891 21.1671C71.542 20.3183 71.8685 19.2519 71.8685 17.9679V8.20703H75.8511V25.4435Z" fill="#0F0F0F"/>
<path d="M50.5077 2.58789C52.3358 2.58789 53.8593 2.95786 55.078 3.69781C56.2967 4.43776 57.189 5.39534 57.7549 6.57056C58.3425 7.74577 58.6363 8.99715 58.6363 10.3247C58.6363 11.6523 58.3534 12.9036 57.7875 14.0788C57.2217 15.2323 56.3294 16.1681 55.1106 16.8863C53.8919 17.6045 52.3576 17.9636 50.5077 17.9636H46.166V25.4392H42.2812V2.58789H50.5077ZM49.9201 14.6664C51.2912 14.6664 52.4447 14.34 53.3805 13.6871C54.3163 13.0125 54.7842 11.8917 54.7842 10.3247C54.7842 8.77952 54.3163 7.69136 53.3805 7.06023C52.4664 6.40733 51.313 6.08088 49.9201 6.08088H46.166V14.6664H49.9201Z" fill="#0F0F0F"/>
<mask id="mask0_4_650" style="mask-type:luminance" maskUnits="userSpaceOnUse" x="0" y="0" width="33" height="31">
<path d="M32.0853 0.951172H0.800781V30.8756H32.0853V0.951172Z" fill="white"/>
</mask>
<g mask="url(#mask0_4_650)">
<path d="M0.800781 9.08289V17.2353C0.800781 19.3697 4.18194 19.3784 4.18194 17.2353V9.08289C4.18194 8.6421 4.00382 8.21936 3.68677 7.90769C3.36972 7.59601 2.93973 7.4209 2.49136 7.4209C2.04299 7.4209 1.61299 7.59601 1.29594 7.90769C0.978895 8.21936 0.800781 8.6421 0.800781 9.08289Z" fill="#0F0F0F"/>
<path d="M28.7539 9.07469V17.2271C28.7848 17.646 28.9759 18.0377 29.2887 18.3237C29.6016 18.6097 30.0129 18.7687 30.44 18.7687C30.8671 18.7687 31.2784 18.6097 31.5913 18.3237C31.9041 18.0377 32.0951 17.646 32.1261 17.2271V9.07469C32.0951 8.65586 31.9041 8.26409 31.5913 7.97812C31.2784 7.69216 30.8671 7.5332 30.44 7.5332C30.0129 7.5332 29.6016 7.69216 29.2887 7.97812C28.9759 8.26409 28.7848 8.65586 28.7539 9.07469Z" fill="#0F0F0F"/>
<path d="M7.74609 2.56432V23.5577C7.74609 23.9985 7.92421 24.4213 8.24125 24.7329C8.5583 25.0446 8.98831 25.2197 9.43667 25.2197C9.88505 25.2197 10.315 25.0446 10.6321 24.7329C10.9491 24.4213 11.1272 23.9985 11.1272 23.5577V2.56432C11.1272 2.12353 10.9491 1.70081 10.6321 1.38912C10.315 1.07744 9.88505 0.902344 9.43667 0.902344C8.98831 0.902344 8.5583 1.07744 8.24125 1.38912C7.92421 1.70081 7.74609 2.12353 7.74609 2.56432Z" fill="#0F0F0F"/>
<path d="M21.7109 2.56432V23.5577C21.7109 23.9985 21.889 24.4213 22.206 24.7329C22.5231 25.0446 22.9531 25.2197 23.4015 25.2197C23.8498 25.2197 24.2798 25.0446 24.5969 24.7329C24.9139 24.4213 25.0921 23.9985 25.0921 23.5577V2.56432C25.0921 2.12353 24.9139 1.70081 24.5969 1.38912C24.2798 1.07744 23.8498 0.902344 23.4015 0.902344C22.9531 0.902344 22.5231 1.07744 22.206 1.38912C21.889 1.70081 21.7109 2.12353 21.7109 2.56432Z" fill="#0F0F0F"/>
<path d="M14.7773 8.32278V29.3162C14.7773 31.4506 18.1585 31.4593 18.1585 29.3162V8.32278C18.1585 6.18845 14.7773 6.1797 14.7773 8.32278Z" fill="#0F0F0F"/>
</g>
</svg>
