<svg width="144" height="45" viewBox="0 0 144 45" fill="none" xmlns="http://www.w3.org/2000/svg">
<g clip-path="url(#clip0_4_628)">
<path d="M142.771 24.6329C142.771 25.6309 142.657 26.731 142.431 27.933C142.226 29.1125 141.863 30.2127 141.342 31.2333C140.843 32.2539 140.174 33.1044 139.335 33.7849C138.518 34.4653 137.486 34.8056 136.238 34.8056C135.921 34.8056 135.592 34.7829 135.252 34.7375C134.912 34.6922 134.583 34.6128 134.265 34.4994C133.97 34.386 133.698 34.2386 133.449 34.0571C133.199 33.853 133.006 33.5922 132.87 33.2745L132.564 38.1737C132.542 38.6954 132.519 39.3192 132.496 40.045C132.496 40.7708 132.405 41.4627 132.224 42.1204C132.065 42.7781 131.782 43.3338 131.373 43.7874C130.988 44.2637 130.421 44.5019 129.672 44.5019C129.241 44.5019 128.878 44.2752 128.584 43.8215C128.289 43.3905 128.051 42.8349 127.869 42.1543C127.71 41.474 127.586 40.7141 127.495 39.8749C127.404 39.0357 127.347 38.2305 127.325 37.4593C127.302 36.6882 127.291 35.985 127.291 35.3499C127.291 34.7148 127.291 34.2499 127.291 33.9551C127.291 32.4354 127.279 30.927 127.257 29.4301C127.234 27.9104 127.223 26.3907 127.223 24.8712C127.223 24.599 127.223 24.1793 127.223 23.6123C127.223 23.0225 127.245 22.3874 127.291 21.7071C127.336 21.0266 127.404 20.3235 127.495 19.5977C127.608 18.8719 127.767 18.2141 127.971 17.6244C128.175 17.012 128.436 16.5244 128.754 16.1615C129.071 15.7758 129.457 15.583 129.91 15.583C130.205 15.583 130.466 15.6737 130.693 15.8552C130.942 16.014 131.147 16.2294 131.305 16.5016C131.487 16.7511 131.634 17.0233 131.748 17.3181C131.861 17.6131 131.952 17.8853 132.02 18.1347C132.723 17.3409 133.528 16.7398 134.435 16.3316C135.365 15.9233 136.352 15.7192 137.395 15.7192C138.484 15.7192 139.369 16.0253 140.049 16.6377C140.752 17.2502 141.296 18.01 141.682 18.9172C142.09 19.8245 142.374 20.7998 142.533 21.8431C142.691 22.8639 142.771 23.7938 142.771 24.6329ZM137.906 24.3608C137.906 24.0205 137.872 23.6804 137.804 23.3401C137.758 22.9772 137.656 22.6483 137.497 22.3535C137.361 22.0359 137.157 21.7865 136.885 21.605C136.613 21.4008 136.273 21.2987 135.864 21.2987C135.32 21.2987 134.742 21.4802 134.129 21.8431C133.539 22.1833 133.097 22.5802 132.802 23.0338C132.689 23.2153 132.621 23.5103 132.598 23.9185C132.575 24.3268 132.564 24.6329 132.564 24.837C132.564 24.9958 132.564 25.2113 132.564 25.4834C132.587 25.733 132.609 25.9938 132.632 26.266C132.655 26.5382 132.678 26.799 132.7 27.0486C132.746 27.298 132.802 27.4909 132.87 27.6269C132.938 27.831 133.086 28.0238 133.313 28.2052C133.539 28.364 133.789 28.5115 134.061 28.6475C134.333 28.7837 134.605 28.8857 134.878 28.9538C135.173 29.0218 135.422 29.0559 135.626 29.0559C136.102 29.0559 136.488 28.8744 136.783 28.5115C137.078 28.1486 137.305 27.7176 137.463 27.2187C137.645 26.7196 137.758 26.2093 137.804 25.6877C137.872 25.1433 137.906 24.701 137.906 24.3608Z" fill="#0F0F0F"/>
<path d="M124.794 29.9756C124.794 30.3838 124.772 30.9168 124.726 31.5747C124.704 32.2324 124.613 32.8788 124.454 33.5139C124.295 34.1264 124.046 34.6594 123.706 35.113C123.365 35.5667 122.889 35.7934 122.277 35.7934C121.438 35.7934 120.791 35.5212 120.337 34.9769C119.884 34.4325 119.668 33.7521 119.691 32.9356C118.965 33.5707 118.137 34.0696 117.208 34.4325C116.3 34.7954 115.37 34.9769 114.418 34.9769C113.76 34.9769 113.136 34.8181 112.546 34.5006C111.957 34.183 111.435 33.7748 110.981 33.2757C110.528 32.7768 110.165 32.2211 109.893 31.6087C109.621 30.9736 109.484 30.3498 109.484 29.7374C109.484 28.6487 109.813 27.6962 110.471 26.8796C111.152 26.0631 111.979 25.3712 112.955 24.8042C113.93 24.2145 114.962 23.7495 116.051 23.4094C117.162 23.0691 118.149 22.8422 119.011 22.7289C119.011 22.6155 119.011 22.5135 119.011 22.4227C119.033 22.332 119.045 22.23 119.045 22.1164C119.045 21.4134 118.852 20.8463 118.466 20.4154C118.081 19.9845 117.536 19.7689 116.833 19.7689C116.266 19.7689 115.779 19.8711 115.37 20.0752C114.962 20.2566 114.576 20.4721 114.214 20.7216C113.851 20.9483 113.488 21.1639 113.125 21.368C112.762 21.5494 112.354 21.6402 111.9 21.6402C111.401 21.6402 110.97 21.4814 110.607 21.1639C110.267 20.8463 110.097 20.4381 110.097 19.939C110.097 19.1906 110.312 18.5102 110.743 17.8978C111.197 17.2853 111.753 16.7749 112.41 16.3667C113.091 15.9358 113.817 15.607 114.588 15.3801C115.382 15.1306 116.107 15.0059 116.765 15.0059C117.378 15.0059 117.99 15.0853 118.602 15.2441C119.215 15.3801 119.793 15.607 120.337 15.9244C120.882 16.2193 121.369 16.5935 121.8 17.0471C122.254 17.4781 122.617 17.9885 122.889 18.5781C123.297 19.4175 123.626 20.3132 123.876 21.2659C124.125 22.1958 124.318 23.1599 124.454 24.1578C124.59 25.1332 124.681 26.1197 124.726 27.1177C124.772 28.093 124.794 29.0457 124.794 29.9756ZM119.351 28.8869L119.249 26.5733C119.203 26.5733 119.158 26.5733 119.113 26.5733C119.067 26.5507 119.022 26.5394 118.977 26.5394C118.682 26.5394 118.308 26.6188 117.854 26.7776C117.423 26.9136 117.003 27.1177 116.595 27.3899C116.187 27.6394 115.835 27.9229 115.54 28.2405C115.268 28.558 115.132 28.8869 115.132 29.2272C115.132 29.5446 115.246 29.7602 115.472 29.8736C115.699 29.9869 115.96 30.0437 116.255 30.0437C116.754 30.0437 117.287 29.9189 117.854 29.6695C118.421 29.3973 118.92 29.1364 119.351 28.8869Z" fill="#0F0F0F"/>
<path d="M109.343 12.2507C109.343 12.3641 109.229 12.693 109.003 13.2374C108.799 13.7817 108.515 14.4508 108.152 15.2447C107.789 16.0385 107.37 16.9344 106.893 17.9324C106.44 18.9077 105.963 19.917 105.464 20.9605C104.965 21.9811 104.478 22.9904 104.002 23.9884C103.525 24.9864 103.083 25.8936 102.675 26.7102C102.289 27.504 101.96 28.1844 101.688 28.7514C101.416 29.2958 101.246 29.636 101.178 29.7722C101.881 29.5453 102.595 29.3638 103.321 29.2278C104.07 29.069 104.818 28.9896 105.566 28.9896C105.929 28.9896 106.315 29.0236 106.723 29.0917C107.131 29.1371 107.506 29.2505 107.846 29.4319C108.209 29.5907 108.504 29.8175 108.731 30.1123C108.98 30.3845 109.105 30.7588 109.105 31.2351C109.105 31.734 108.935 32.1877 108.594 32.596C108.254 32.9816 107.812 33.3218 107.268 33.6166C106.746 33.9115 106.145 34.161 105.464 34.3651C104.784 34.5693 104.104 34.7393 103.423 34.8755C102.743 35.0115 102.096 35.1022 101.484 35.1476C100.871 35.2157 100.361 35.2497 99.9528 35.2497C99.4311 35.2497 98.8528 35.2271 98.2177 35.1816C97.6053 35.1363 97.0156 35.0115 96.4486 34.8074C95.8815 34.6033 95.4052 34.3085 95.0197 33.9228C94.6568 33.5146 94.4753 32.9476 94.4753 32.2218C94.4753 31.7227 94.6113 31.0537 94.8835 30.2145C95.1785 29.3525 95.5186 28.4792 95.9043 27.5948C96.2898 26.6875 96.6867 25.8255 97.095 25.009C97.5259 24.1698 97.8661 23.5121 98.1157 23.0357C98.8867 21.6069 99.658 20.1892 100.429 18.783C101.223 17.3541 101.994 15.9138 102.743 14.4622C101.949 14.9158 101.042 15.3355 100.021 15.721C99.0003 16.0839 98.0363 16.2654 97.129 16.2654C96.8115 16.2654 96.4713 16.2199 96.1084 16.1292C95.7681 16.0385 95.4506 15.9138 95.1557 15.755C94.8835 15.5735 94.6568 15.3468 94.4753 15.0746C94.2939 14.8024 94.2031 14.4849 94.2031 14.1219C94.2031 13.5322 94.3959 12.9879 94.7814 12.4889C95.167 11.9899 95.6661 11.5363 96.2785 11.128C96.9136 10.7197 97.6166 10.3568 98.3878 10.0393C99.1817 9.72175 99.9755 9.46091 100.769 9.25677C101.563 9.05264 102.312 8.89387 103.015 8.78047C103.741 8.66705 104.353 8.61035 104.852 8.61035C106.168 8.61035 107.245 8.87119 108.084 9.39286C108.923 9.91454 109.343 10.8672 109.343 12.2507Z" fill="#0F0F0F"/>
<path d="M88.1089 35.7241C87.7234 35.7241 87.4172 35.5426 87.1903 35.1797C86.9636 34.8396 86.7935 34.4426 86.6801 33.9889C86.5666 33.5353 86.4873 33.0817 86.4419 32.628C86.4192 32.1518 86.4079 31.7889 86.4079 31.5393C86.4079 30.859 86.4419 30.1785 86.51 29.4981C86.6007 28.8176 86.6914 28.1372 86.7821 27.4567C86.8955 26.7763 86.9862 26.0958 87.0543 25.4154C87.1451 24.7349 87.1903 24.0545 87.1903 23.374C87.1903 23.1018 87.179 22.807 87.1564 22.4894C87.1337 22.1719 87.077 21.8771 86.9862 21.6049C86.9182 21.31 86.7935 21.0719 86.612 20.8905C86.4306 20.709 86.1924 20.6183 85.8975 20.6183C85.6934 20.6183 85.4666 20.7884 85.2172 21.1285C84.9676 21.4461 84.7294 21.8204 84.5027 22.2513C84.2984 22.6595 84.117 23.0792 83.9583 23.5102C83.8222 23.9184 83.7541 24.2247 83.7541 24.4288C83.7541 24.9277 83.7541 25.4381 83.7541 25.9598C83.7769 26.4587 83.7882 26.9691 83.7882 27.4908V29.464C83.7656 29.8723 83.7314 30.2918 83.6862 30.7228C83.6407 31.1538 83.5726 31.5735 83.4819 31.9816C83.414 32.39 83.3119 32.7869 83.1758 33.1724C83.0398 33.5353 82.8583 33.8642 82.6314 34.1591C82.4273 34.4312 82.1778 34.6581 81.883 34.8396C81.5881 35.021 81.2366 35.1118 80.8282 35.1118C80.3746 35.1118 80.0004 34.9643 79.7055 34.6695C79.4107 34.3745 79.1725 34.0003 78.9911 33.5466C78.8096 33.0704 78.6734 32.5486 78.5827 31.9816C78.5148 31.392 78.458 30.8249 78.4127 30.2805C78.39 29.7135 78.3786 29.2031 78.3786 28.7495C78.4013 28.2732 78.4127 27.899 78.4127 27.6268V26.0277C78.4127 25.1659 78.3899 24.3154 78.3447 23.4761C78.322 22.6369 78.3105 21.7977 78.3105 20.9585C78.3105 20.5049 78.3105 19.9264 78.3105 19.2233C78.3333 18.5203 78.4241 17.8397 78.5827 17.182C78.7415 16.5015 79.0024 15.9232 79.3653 15.4469C79.7282 14.9706 80.2612 14.7324 80.9644 14.7324C81.2818 14.7324 81.5654 14.8345 81.8149 15.0386C82.0644 15.2428 82.2798 15.4922 82.4613 15.7872C82.6654 16.082 82.8242 16.3995 82.9376 16.7397C83.0737 17.08 83.1758 17.3748 83.2438 17.6243C83.4706 17.3067 83.7314 17.0006 84.0263 16.7057C84.3439 16.4108 84.6955 16.1501 85.081 15.9232C85.4666 15.6964 85.8975 15.515 86.3738 15.3788C86.8502 15.2428 87.3946 15.1747 88.0069 15.1747C89.1637 15.1747 90.0596 15.4582 90.6947 16.0252C91.3524 16.5696 91.8287 17.2614 92.1236 18.1006C92.4411 18.9171 92.6339 19.8017 92.702 20.7543C92.77 21.707 92.804 22.5688 92.804 23.3401C92.804 23.7256 92.77 24.3039 92.702 25.0752C92.6339 25.8236 92.5205 26.6628 92.3617 27.5928C92.2257 28.5001 92.0329 29.4413 91.7834 30.4167C91.5339 31.3692 91.239 32.2425 90.8988 33.0364C90.5585 33.8301 90.1503 34.4767 89.674 34.9756C89.2204 35.4747 88.6987 35.7241 88.1089 35.7241Z" fill="#0F0F0F"/>
<path d="M76.7344 28.7135C76.7344 29.4847 76.4849 30.2445 75.9859 30.993C75.5095 31.7188 74.8972 32.3765 74.1486 32.9663C73.4228 33.5333 72.6404 33.9982 71.8012 34.3611C70.9619 34.7014 70.1908 34.8715 69.4877 34.8715C68.2856 34.8715 67.2082 34.5767 66.2555 33.9869C65.3256 33.3745 64.5432 32.6034 63.9081 31.6735C63.273 30.7434 62.7853 29.7228 62.445 28.6114C62.1276 27.4773 61.9688 26.3773 61.9688 25.3113C61.9688 24.1772 62.1276 22.9638 62.445 21.6708C62.7626 20.378 63.2389 19.1873 63.874 18.0986C64.5317 17.0099 65.3482 16.1026 66.3236 15.3768C67.3216 14.651 68.501 14.2881 69.8619 14.2881C70.6331 14.2881 71.3703 14.4242 72.0734 14.6964C72.7764 14.9458 73.3889 15.3087 73.9106 15.7851C74.4323 16.2614 74.8518 16.8284 75.1694 17.4861C75.4869 18.144 75.6457 18.8811 75.6457 19.6977C75.6457 20.7636 75.4188 21.7616 74.9652 22.6916C74.5115 23.6215 73.9106 24.4267 73.1621 25.1071C72.4135 25.7876 71.5517 26.3433 70.5764 26.7743C69.601 27.1825 68.603 27.4094 67.5824 27.4547C67.6731 28.1124 67.934 28.5888 68.365 28.8836C68.8186 29.1784 69.3516 29.3259 69.9639 29.3259C70.4176 29.3259 70.8599 29.2126 71.2909 28.9857C71.7218 28.7589 72.1414 28.5094 72.5497 28.2372C72.9579 27.9424 73.3549 27.6815 73.7404 27.4547C74.1486 27.2279 74.557 27.1144 74.9652 27.1144C75.4188 27.1144 75.8271 27.2619 76.19 27.5567C76.5529 27.8517 76.7344 28.2372 76.7344 28.7135ZM71.2228 20.378C71.2228 20.0832 71.1434 19.7771 70.9847 19.4595C70.8259 19.142 70.5764 18.9832 70.2361 18.9832C69.7372 18.9832 69.3175 19.1192 68.9773 19.3914C68.6372 19.6409 68.3537 19.9698 68.1268 20.378C67.9 20.7636 67.7186 21.1832 67.5824 21.6369C67.469 22.0905 67.401 22.5102 67.3783 22.8957C67.6958 22.8276 68.07 22.7369 68.501 22.6235C68.9546 22.5102 69.3743 22.3627 69.7598 22.1812C70.1682 21.9771 70.5083 21.7276 70.7805 21.4328C71.0754 21.138 71.2228 20.7864 71.2228 20.378Z" fill="#0F0F0F"/>
<path d="M61.8194 12.2507C61.8194 12.3641 61.706 12.693 61.4793 13.2374C61.2751 13.7817 60.9916 14.4508 60.6287 15.2447C60.2658 16.0385 59.8462 16.9344 59.3698 17.9324C58.9162 18.9077 58.4399 19.917 57.941 20.9605C57.4419 21.9811 56.9543 22.9904 56.4781 23.9884C56.0016 24.9864 55.5593 25.8936 55.1511 26.7102C54.7656 27.504 54.4367 28.1844 54.1645 28.7514C53.8923 29.2958 53.7222 29.636 53.6541 29.7722C54.3573 29.5453 55.0717 29.3638 55.7975 29.2278C56.546 29.069 57.2946 28.9896 58.043 28.9896C58.4059 28.9896 58.7915 29.0236 59.1998 29.0917C59.608 29.1371 59.9823 29.2505 60.3225 29.4319C60.6854 29.5907 60.9802 29.8175 61.2071 30.1123C61.4565 30.3845 61.5813 30.7588 61.5813 31.2351C61.5813 31.734 61.4112 32.1877 61.071 32.596C60.7307 32.9816 60.2885 33.3218 59.7442 33.6166C59.2225 33.9115 58.6214 34.161 57.941 34.3651C57.2605 34.5693 56.5801 34.7393 55.8996 34.8755C55.2192 35.0115 54.5728 35.1022 53.9604 35.1476C53.348 35.2157 52.8376 35.2497 52.4294 35.2497C51.9077 35.2497 51.3293 35.2271 50.6943 35.1816C50.0818 35.1363 49.4922 35.0115 48.925 34.8074C48.358 34.6033 47.8818 34.3085 47.4962 33.9228C47.1333 33.5146 46.9519 32.9476 46.9519 32.2218C46.9519 31.7227 47.0879 31.0537 47.3601 30.2145C47.6549 29.3525 47.9951 28.4792 48.3807 27.5948C48.7664 26.6875 49.1632 25.8255 49.5714 25.009C50.0024 24.1698 50.3427 23.5121 50.5922 23.0357C51.3633 21.6069 52.1346 20.1892 52.9056 18.783C53.6995 17.3541 54.4706 15.9138 55.2192 14.4622C54.4253 14.9158 53.5181 15.3355 52.4975 15.721C51.4767 16.0839 50.5128 16.2654 49.6056 16.2654C49.2879 16.2654 48.9478 16.2199 48.5849 16.1292C48.2447 16.0385 47.9271 15.9138 47.6322 15.755C47.3601 15.5735 47.1333 15.3468 46.9519 15.0746C46.7704 14.8024 46.6797 14.4849 46.6797 14.1219C46.6797 13.5322 46.8725 12.9879 47.258 12.4889C47.6436 11.9899 48.1426 11.5363 48.7549 11.128C49.39 10.7197 50.0931 10.3568 50.8644 10.0393C51.6581 9.72175 52.452 9.46091 53.2459 9.25677C54.0398 9.05264 54.7882 8.89387 55.4914 8.78047C56.2172 8.66705 56.8295 8.61035 57.3286 8.61035C58.644 8.61035 59.7214 8.87119 60.5607 9.39286C61.3999 9.91454 61.8194 10.8672 61.8194 12.2507Z" fill="#0F0F0F"/>
<mask id="mask0_4_628" style="mask-type:luminance" maskUnits="userSpaceOnUse" x="0" y="1" width="43" height="43">
<path d="M42.1475 1.38867H0.0507812V43.4855H42.1475V1.38867Z" fill="white"/>
</mask>
<g mask="url(#mask0_4_628)">
<path d="M0.0507812 22.425H21.0992V1.38867C20.217 6.65161 17.7146 11.5076 13.9413 15.2789C10.1678 19.0502 5.31172 21.5486 0.0507812 22.425Z" fill="#0F0F0F"/>
<path d="M21.0801 43.487V22.4268H42.1285C36.8635 23.3031 32.0039 25.8044 28.2298 29.5806C24.4558 33.3568 21.9558 38.2191 21.0801 43.487Z" fill="#0F0F0F"/>
</g>
</g>
<defs>
<clipPath id="clip0_4_628">
<rect width="143.71" height="45" fill="white"/>
</clipPath>
</defs>
</svg>
