<svg width="60" height="60" viewBox="0 0 60 60" fill="none" xmlns="http://www.w3.org/2000/svg">
<rect width="60" height="60" fill="#1A212A"/>
<rect x="0.5" y="0.5" width="59" height="59" stroke="white" stroke-opacity="0.08"/>
<path d="M25.6496 38.9098C25.6196 38.9098 25.5796 38.9298 25.5496 38.9298C23.6096 37.9698 22.0296 36.3798 21.0596 34.4398C21.0596 34.4098 21.0796 34.3698 21.0796 34.3398C22.2996 34.6998 23.5596 34.9698 24.8096 35.1798C25.0296 36.4398 25.2896 37.6898 25.6496 38.9098Z" fill="#FFD701"/>
<path d="M38.94 34.45C37.95 36.44 36.3 38.05 34.29 39.02C34.67 37.75 34.99 36.47 35.2 35.18C36.46 34.97 37.7 34.7 38.92 34.34C38.91 34.38 38.94 34.42 38.94 34.45Z" fill="#FFD701"/>
<path d="M39.02 25.7105C37.76 25.3305 36.49 25.0205 35.2 24.8005C34.99 23.5105 34.68 22.2305 34.29 20.9805C36.36 21.9705 38.03 23.6405 39.02 25.7105Z" fill="#FFD701"/>
<path d="M25.6505 21.0896C25.2905 22.3096 25.0305 23.5496 24.8205 24.8096C23.5305 25.0096 22.2505 25.3296 20.9805 25.7096C21.9505 23.6996 23.5605 22.0496 25.5505 21.0596C25.5805 21.0596 25.6205 21.0896 25.6505 21.0896Z" fill="#FFD701"/>
<path d="M33.49 24.59C31.17 24.33 28.83 24.33 26.51 24.59C26.76 23.22 27.08 21.85 27.53 20.53C27.55 20.45 27.54 20.39 27.55 20.31C28.34 20.12 29.15 20 30 20C30.84 20 31.66 20.12 32.44 20.31C32.45 20.39 32.45 20.45 32.47 20.53C32.92 21.86 33.24 23.22 33.49 24.59Z" fill="#FFD701"/>
<path d="M24.59 33.49C23.21 33.24 21.85 32.92 20.53 32.47C20.45 32.45 20.39 32.46 20.31 32.45C20.12 31.66 20 30.85 20 30C20 29.16 20.12 28.34 20.31 27.56C20.39 27.55 20.45 27.55 20.53 27.53C21.86 27.09 23.21 26.76 24.59 26.51C24.34 28.83 24.34 31.17 24.59 33.49Z" fill="#FFD701"/>
<path d="M40 30C40 30.85 39.88 31.66 39.69 32.45C39.61 32.46 39.55 32.45 39.47 32.47C38.14 32.91 36.78 33.24 35.41 33.49C35.67 31.17 35.67 28.83 35.41 26.51C36.78 26.76 38.15 27.08 39.47 27.53C39.55 27.55 39.61 27.56 39.69 27.56C39.88 28.35 40 29.16 40 30Z" fill="#FFD701"/>
<path d="M33.49 35.41C33.24 36.79 32.92 38.15 32.47 39.47C32.45 39.55 32.45 39.61 32.44 39.69C31.66 39.88 30.84 40 30 40C29.15 40 28.34 39.88 27.55 39.69C27.54 39.61 27.55 39.55 27.53 39.47C27.09 38.14 26.76 36.79 26.51 35.41C27.67 35.54 28.83 35.63 30 35.63C31.17 35.63 32.34 35.54 33.49 35.41Z" fill="#FFD701"/>
<path d="M33.7633 33.7633C31.2622 34.0789 28.7378 34.0789 26.2367 33.7633C25.9211 31.2622 25.9211 28.7378 26.2367 26.2367C28.7378 25.9211 31.2622 25.9211 33.7633 26.2367C34.0789 28.7378 34.0789 31.2622 33.7633 33.7633Z" fill="#FFD701"/>
</svg>
