<svg width="20" height="20" viewBox="0 0 20 20" fill="none" xmlns="http://www.w3.org/2000/svg">
<path opacity="0.2" d="M17.5 5V15C17.5 15.1658 17.4342 15.3247 17.3169 15.4419C17.1997 15.5592 17.0408 15.625 16.875 15.625H6.25L3.52734 17.9773C3.43631 18.0539 3.32531 18.1029 3.20739 18.1186C3.08947 18.1343 2.96952 18.116 2.86164 18.0659C2.75376 18.0157 2.66242 17.9359 2.59836 17.8356C2.5343 17.7354 2.50018 17.619 2.5 17.5V5C2.5 4.83424 2.56585 4.67527 2.68306 4.55806C2.80027 4.44085 2.95924 4.375 3.125 4.375H16.875C17.0408 4.375 17.1997 4.44085 17.3169 4.55806C17.4342 4.67527 17.5 4.83424 17.5 5Z" fill="#808080"/>
<path d="M16.875 3.75H3.12502C2.7935 3.75 2.47556 3.8817 2.24114 4.11612C2.00672 4.35054 1.87502 4.66848 1.87502 5V17.5C1.87358 17.7384 1.94101 17.9721 2.06921 18.173C2.19741 18.374 2.38092 18.5336 2.59768 18.6328C2.76286 18.7097 2.94281 18.7497 3.12502 18.75C3.41846 18.7493 3.70217 18.6447 3.9258 18.4547L3.93284 18.4492L6.4844 16.25H16.875C17.2065 16.25 17.5245 16.1183 17.7589 15.8839C17.9933 15.6495 18.125 15.3315 18.125 15V5C18.125 4.66848 17.9933 4.35054 17.7589 4.11612C17.5245 3.8817 17.2065 3.75 16.875 3.75ZM16.875 15H6.25002C6.09995 15.0001 5.95492 15.0542 5.84143 15.1523L3.12502 17.5V5H16.875V15Z" fill="#808080"/>
</svg>
